0
SECTION
2
HEADER
9
$INSUNITS
70
4
9
$ACADVER
1
AC1014
9
$HANDSEED
5
FFFF
0
ENDSEC
0
SECTION
2
TABLES
0
TABLE
2
VPORT
5
8
100
AcDbSymbolTable
0
ENDTAB
0
TABLE
2
LTYPE
5
5
100
AcDbSymbolTable
0
LTYPE
5
14
100
AcDbSymbolTableRecord
100
AcDbLinetypeTableRecord
2
BYBLOCK
70
0
0
LTYPE
5
15
100
AcDbSymbolTableRecord
100
AcDbLinetypeTableRecord
2
BYLAYER
70
0
0
ENDTAB
0
TABLE
2
LAYER
5
2
100
AcDbSymbolTable
70
2
0
LAYER
5
50
100
AcDbSymbolTableRecord
100
AcDbLayerTableRecord
2
0
70
0
6
CONTINUOUS
0
ENDTAB
0
TABLE
2
STYLE
5
3
100
AcDbSymbolTable
70
1
0
STYLE
5
11
100
AcDbSymbolTableRecord
100
AcDbTextStyleTableRecord
2
STANDARD
70
0
0
ENDTAB
0
TABLE
2
VIEW
5
6
100
AcDbSymbolTable
70
0
0
ENDTAB
0
TABLE
2
UCS
5
7
100
AcDbSymbolTable
70
0
0
ENDTAB
0
TABLE
2
APPID
5
9
100
AcDbSymbolTable
70
2
0
APPID
5
12
100
AcDbSymbolTableRecord
100
AcDbRegAppTableRecord
2
ACAD
70
0
0
ENDTAB
0
TABLE
2
DIMSTYLE
5
A
100
AcDbSymbolTable
70
1
0
ENDTAB
0
TABLE
2
BLOCK_RECORD
5
1
100
AcDbSymbolTable
70
1
0
BLOCK_RECORD
5
1F
100
AcDbSymbolTableRecord
100
AcDbBlockTableRecord
2
*MODEL_SPACE
0
BLOCK_RECORD
5
1B
100
AcDbSymbolTableRecord
100
AcDbBlockTableRecord
2
*PAPER_SPACE
0
ENDTAB
0
ENDSEC
0
SECTION
2
BLOCKS
0
BLOCK
5
20
100
AcDbEntity
100
AcDbBlockBegin
2
*MODEL_SPACE
0
ENDBLK
5
21
100
AcDbEntity
100
AcDbBlockEnd
0
BLOCK
5
1C
100
AcDbEntity
100
AcDbBlockBegin
2
*PAPER_SPACE
0
ENDBLK
5
1D
100
AcDbEntity
100
AcDbBlockEnd
0
ENDSEC
0
SECTION
2
ENTITIES
0
LWPOLYLINE
5
100
100
AcDbEntity
8
0
100
AcDbPolyline
90
4
70
1
43
0.0
10
-23.750000000000004
20
168.78136351354925
10
-20.000000000000004
20
168.78136351354925
10
-20.000000000000004
20
172.53100000000001
10
-23.750000000000004
20
172.53100000000001
0
LWPOLYLINE
5
101
100
AcDbEntity
8
0
100
AcDbPolyline
90
4
70
1
43
0.0
10
-32.250000000000007
20
168.78136351354925
10
-28.500000000000007
20
168.78136351354925
10
-28.500000000000007
20
172.53100000000001
10
-32.250000000000007
20
172.53100000000001
0
LWPOLYLINE
5
102
100
AcDbEntity
8
0
100
AcDbPolyline
90
4
70
1
43
0.0
10
-40.750000000000014
20
168.78136351354925
10
-37.000000000000007
20
168.78136351354925
10
-37.000000000000007
20
172.53100000000001
10
-40.750000000000014
20
172.53100000000001
0
LWPOLYLINE
5
103
100
AcDbEntity
8
0
100
AcDbPolyline
90
72
70
1
43
0.0
10
-14.24999999999998
20
98
10
-14.24999999999998
20
85.759998092651387
10
-44.248998092651355
20
85.760000000000005
10
-44.248999999999981
20
98
10
-47.999999999999979
20
98
10
-47.999999999999979
20
103
10
-44.248999999999981
20
103
10
-44.248999999999981
20
108
10
-47.999999999999979
20
108
10
-47.999999999999979
20
113
10
-44.248999999999981
20
113
10
-44.248999999999981
20
118
10
-47.999999999999979
20
118
10
-47.999999999999979
20
123
10
-44.248999999999981
20
123
10
-44.248999999999981
20
128
10
-47.999999999999979
20
128
10
-47.999999999999979
20
133
10
-44.248999999999981
20
133
10
-44.248999999999981
20
138
10
-47.999999999999979
20
138
10
-47.999999999999979
20
143
10
-44.248999999999981
20
143
10
-44.248999999999981
20
148
10
-47.999999999999979
20
148
10
-47.999999999999979
20
153
10
-44.248999999999981
20
153
10
-44.248999999999981
20
158
10
-47.999999999999979
20
158
10
-47.999999999999979
20
163
10
-44.248999999999981
20
163
10
-44.248999999999981
20
168
10
-47.999999999999979
20
168
10
-47.999999999999979
20
173
10
-44.248999999999981
20
173
10
-44.248999999999981
20
178
10
-47.999999999999979
20
178
10
-47.999999999999979
20
183
10
-18.00099999999998
20
183
10
-18.00099999999998
20
178
10
-14.24999999999998
20
178
10
-14.24999999999998
20
173
10
-18.00099999999998
20
173
10
-18.00099999999998
20
168
10
-14.24999999999998
20
168
10
-14.24999999999998
20
163
10
-18.00099999999998
20
163
10
-18.00099999999998
20
158
10
-14.24999999999998
20
158
10
-14.24999999999998
20
153
10
-18.00099999999998
20
153
10
-18.00099999999998
20
148
10
-14.24999999999998
20
148
10
-14.24999999999998
20
143
10
-18.00099999999998
20
143
10
-18.00099999999998
20
138
10
-14.24999999999998
20
138
10
-14.24999999999998
20
133
10
-18.00099999999998
20
133
10
-18.00099999999998
20
128
10
-14.24999999999998
20
128
10
-14.24999999999998
20
123
10
-18.00099999999998
20
123
10
-18.00099999999998
20
118
10
-14.24999999999998
20
118
10
-14.24999999999998
20
113
10
-18.00099999999998
20
113
10
-18.00099999999998
20
108
10
-14.24999999999998
20
108
10
-14.24999999999998
20
103
10
-18.00099999999998
20
103
10
-18.00099999999998
20
98
0
ENDSEC
0
SECTION
2
OBJECTS
0
DICTIONARY
5
C
100
AcDbDictionary
3
ACAD_GROUP
350
D
3
ACAD_MLINESTYLE
350
17
0
DICTIONARY
5
D
100
AcDbDictionary
0
DICTIONARY
5
1A
330
C
100
AcDbDictionary
0
DICTIONARY
5
17
100
AcDbDictionary
0
ENDSEC
0
EOF
