0
SECTION
2
HEADER
9
$INSUNITS
70
4
9
$ACADVER
1
AC1014
9
$HANDSEED
5
FFFF
0
ENDSEC
0
SECTION
2
TABLES
0
TABLE
2
VPORT
5
8
100
AcDbSymbolTable
0
ENDTAB
0
TABLE
2
LTYPE
5
5
100
AcDbSymbolTable
0
LTYPE
5
14
100
AcDbSymbolTableRecord
100
AcDbLinetypeTableRecord
2
BYBLOCK
70
0
0
LTYPE
5
15
100
AcDbSymbolTableRecord
100
AcDbLinetypeTableRecord
2
BYLAYER
70
0
0
ENDTAB
0
TABLE
2
LAYER
5
2
100
AcDbSymbolTable
70
2
0
LAYER
5
50
100
AcDbSymbolTableRecord
100
AcDbLayerTableRecord
2
0
70
0
6
CONTINUOUS
0
ENDTAB
0
TABLE
2
STYLE
5
3
100
AcDbSymbolTable
70
1
0
STYLE
5
11
100
AcDbSymbolTableRecord
100
AcDbTextStyleTableRecord
2
STANDARD
70
0
0
ENDTAB
0
TABLE
2
VIEW
5
6
100
AcDbSymbolTable
70
0
0
ENDTAB
0
TABLE
2
UCS
5
7
100
AcDbSymbolTable
70
0
0
ENDTAB
0
TABLE
2
APPID
5
9
100
AcDbSymbolTable
70
2
0
APPID
5
12
100
AcDbSymbolTableRecord
100
AcDbRegAppTableRecord
2
ACAD
70
0
0
ENDTAB
0
TABLE
2
DIMSTYLE
5
A
100
AcDbSymbolTable
70
1
0
ENDTAB
0
TABLE
2
BLOCK_RECORD
5
1
100
AcDbSymbolTable
70
1
0
BLOCK_RECORD
5
1F
100
AcDbSymbolTableRecord
100
AcDbBlockTableRecord
2
*MODEL_SPACE
0
BLOCK_RECORD
5
1B
100
AcDbSymbolTableRecord
100
AcDbBlockTableRecord
2
*PAPER_SPACE
0
ENDTAB
0
ENDSEC
0
SECTION
2
BLOCKS
0
BLOCK
5
20
100
AcDbEntity
100
AcDbBlockBegin
2
*MODEL_SPACE
0
ENDBLK
5
21
100
AcDbEntity
100
AcDbBlockEnd
0
BLOCK
5
1C
100
AcDbEntity
100
AcDbBlockBegin
2
*PAPER_SPACE
0
ENDBLK
5
1D
100
AcDbEntity
100
AcDbBlockEnd
0
ENDSEC
0
SECTION
2
ENTITIES
0
LWPOLYLINE
5
100
100
AcDbEntity
8
0
100
AcDbPolyline
90
4
70
1
43
0.0
10
-172.74999999999994
20
168.78136351354925
10
-168.99999999999994
20
168.78136351354925
10
-168.99999999999994
20
172.53100000000001
10
-172.74999999999994
20
172.53100000000001
0
LWPOLYLINE
5
101
100
AcDbEntity
8
0
100
AcDbPolyline
90
4
70
1
43
0.0
10
-181.24999999999994
20
168.78136351354925
10
-177.49999999999994
20
168.78136351354925
10
-177.49999999999994
20
172.53100000000001
10
-181.24999999999994
20
172.53100000000001
0
LWPOLYLINE
5
102
100
AcDbEntity
8
0
100
AcDbPolyline
90
4
70
1
43
0.0
10
-189.74999999999994
20
168.78136351354925
10
-185.99999999999994
20
168.78136351354925
10
-185.99999999999994
20
172.53100000000001
10
-189.74999999999994
20
172.53100000000001
0
LWPOLYLINE
5
103
100
AcDbEntity
8
0
100
AcDbPolyline
90
72
70
1
43
0.0
10
-162.99999999999997
20
123
10
-163.00000000000006
20
118
10
-166.75000000000009
20
118
10
-166.75
20
113
10
-163
20
113
10
-163.00000000000009
20
108
10
-166.75000000000009
20
108
10
-166.75
20
103
10
-163
20
103
10
-163.00000000000009
20
98
10
-166.75000000000009
20
98
10
-166.75
20
85.760000000000005
10
-193.25
20
85.760000000000005
10
-193.25
20
97.999999999999986
10
-197
20
97.999999999999986
10
-197
20
102.99999999999999
10
-193.25
20
102.99999999999999
10
-193.25
20
107.99999999999999
10
-197
20
107.99999999999999
10
-197
20
112.99999999999999
10
-193.25
20
112.99999999999999
10
-193.25
20
117.99999999999999
10
-197
20
117.99999999999999
10
-197
20
122.99999999999999
10
-193.25
20
122.99999999999999
10
-193.25
20
127.99999999999999
10
-197
20
127.99999999999999
10
-197
20
133
10
-193.25
20
133
10
-193.25
20
138
10
-197
20
138
10
-197
20
143
10
-193.25
20
143
10
-193.25
20
148
10
-197
20
148
10
-197
20
153
10
-193.25
20
153
10
-193.25
20
158
10
-197
20
158
10
-197
20
163
10
-193.25
20
163
10
-193.25
20
168
10
-197
20
168
10
-197
20
173
10
-193.25
20
173
10
-193.25
20
178
10
-197
20
178
10
-197
20
183
10
-162.99999999999997
20
183
10
-163.00000000000006
20
178
10
-166.75000000000006
20
178
10
-166.74999999999997
20
173
10
-162.99999999999997
20
173
10
-163.00000000000006
20
168
10
-166.75000000000006
20
168
10
-166.74999999999997
20
163
10
-162.99999999999997
20
163
10
-163.00000000000006
20
158
10
-166.75000000000006
20
158
10
-166.74999999999997
20
153
10
-162.99999999999997
20
153
10
-163.00000000000006
20
148
10
-166.75000000000006
20
148
10
-166.74999999999997
20
143
10
-162.99999999999997
20
143
10
-163.00000000000006
20
138
10
-166.75000000000006
20
138
10
-166.75
20
133
10
-162.99999999999997
20
133
10
-163.00000000000006
20
128
10
-166.75000000000009
20
128
10
-166.75
20
123
0
ENDSEC
0
SECTION
2
OBJECTS
0
DICTIONARY
5
C
100
AcDbDictionary
3
ACAD_GROUP
350
D
3
ACAD_MLINESTYLE
350
17
0
DICTIONARY
5
D
100
AcDbDictionary
0
DICTIONARY
5
1A
330
C
100
AcDbDictionary
0
DICTIONARY
5
17
100
AcDbDictionary
0
ENDSEC
0
EOF
