0
SECTION
2
HEADER
9
$INSUNITS
70
4
9
$ACADVER
1
AC1014
9
$HANDSEED
5
FFFF
0
ENDSEC
0
SECTION
2
TABLES
0
TABLE
2
VPORT
5
8
100
AcDbSymbolTable
0
ENDTAB
0
TABLE
2
LTYPE
5
5
100
AcDbSymbolTable
0
LTYPE
5
14
100
AcDbSymbolTableRecord
100
AcDbLinetypeTableRecord
2
BYBLOCK
70
0
0
LTYPE
5
15
100
AcDbSymbolTableRecord
100
AcDbLinetypeTableRecord
2
BYLAYER
70
0
0
ENDTAB
0
TABLE
2
LAYER
5
2
100
AcDbSymbolTable
70
2
0
LAYER
5
50
100
AcDbSymbolTableRecord
100
AcDbLayerTableRecord
2
0
70
0
6
CONTINUOUS
0
ENDTAB
0
TABLE
2
STYLE
5
3
100
AcDbSymbolTable
70
1
0
STYLE
5
11
100
AcDbSymbolTableRecord
100
AcDbTextStyleTableRecord
2
STANDARD
70
0
0
ENDTAB
0
TABLE
2
VIEW
5
6
100
AcDbSymbolTable
70
0
0
ENDTAB
0
TABLE
2
UCS
5
7
100
AcDbSymbolTable
70
0
0
ENDTAB
0
TABLE
2
APPID
5
9
100
AcDbSymbolTable
70
2
0
APPID
5
12
100
AcDbSymbolTableRecord
100
AcDbRegAppTableRecord
2
ACAD
70
0
0
ENDTAB
0
TABLE
2
DIMSTYLE
5
A
100
AcDbSymbolTable
70
1
0
ENDTAB
0
TABLE
2
BLOCK_RECORD
5
1
100
AcDbSymbolTable
70
1
0
BLOCK_RECORD
5
1F
100
AcDbSymbolTableRecord
100
AcDbBlockTableRecord
2
*MODEL_SPACE
0
BLOCK_RECORD
5
1B
100
AcDbSymbolTableRecord
100
AcDbBlockTableRecord
2
*PAPER_SPACE
0
ENDTAB
0
ENDSEC
0
SECTION
2
BLOCKS
0
BLOCK
5
20
100
AcDbEntity
100
AcDbBlockBegin
2
*MODEL_SPACE
0
ENDBLK
5
21
100
AcDbEntity
100
AcDbBlockEnd
0
BLOCK
5
1C
100
AcDbEntity
100
AcDbBlockBegin
2
*PAPER_SPACE
0
ENDBLK
5
1D
100
AcDbEntity
100
AcDbBlockEnd
0
ENDSEC
0
SECTION
2
ENTITIES
0
LWPOLYLINE
5
100
100
AcDbEntity
8
0
100
AcDbPolyline
90
4
70
1
43
0.0
10
11.107142857142867
20
3.75
10
6.6071466718401615
20
3.75
10
6.6071466718401615
20
0
10
11.107142857142867
20
0
0
LWPOLYLINE
5
101
100
AcDbEntity
8
0
100
AcDbPolyline
90
4
70
1
43
0.0
10
-39.178571428571431
20
3.75
10
-43.678567613874137
20
3.75
10
-43.678567613874137
20
0
10
-39.178571428571431
20
0
0
LWPOLYLINE
5
102
100
AcDbEntity
8
0
100
AcDbPolyline
90
4
70
1
43
0.0
10
-26.607142857142851
20
3.75
10
-31.107139042445556
20
3.75
10
-31.107139042445556
20
0
10
-26.607142857142851
20
0
0
LWPOLYLINE
5
103
100
AcDbEntity
8
0
100
AcDbPolyline
90
4
70
1
43
0.0
10
23.678571428571438
20
3.75
10
19.178575243268735
20
3.75
10
19.178575243268735
20
0
10
23.678571428571438
20
0
0
LWPOLYLINE
5
104
100
AcDbEntity
8
0
100
AcDbPolyline
90
4
70
1
43
0.0
10
-1.4642857142857086
20
3.75
10
-5.9642818995884141
20
3.75
10
-5.9642818995884141
20
0
10
-1.4642857142857089
20
0
0
LWPOLYLINE
5
105
100
AcDbEntity
8
0
100
AcDbPolyline
90
4
70
1
43
0.0
10
-51.749999999999986
20
3.75
10
-56.249996185302692
20
3.75
10
-56.249996185302692
20
0
10
-51.749999999999986
20
0
0
LWPOLYLINE
5
106
100
AcDbEntity
8
0
100
AcDbPolyline
90
4
70
1
43
0.0
10
-14.035714285714281
20
3.75
10
-18.535710471016987
20
3.75
10
-18.535710471016987
20
0
10
-14.035714285714281
20
0
0
LWPOLYLINE
5
107
100
AcDbEntity
8
0
100
AcDbPolyline
90
4
70
1
43
0.0
10
36.250000000000014
20
3.75
10
31.750003814697308
20
3.75
10
31.750003814697308
20
0
10
36.250000000000014
20
0
0
LWPOLYLINE
5
108
100
AcDbEntity
8
0
100
AcDbPolyline
90
158
70
1
43
0.0
10
-145.00000404357908
20
-38.749998594611654
10
-149.9900021362304
20
-38.749998594611654
10
-149.98999999999998
20
-35
10
-149.98999999999998
20
85
10
-146.24999999999997
20
85
10
-146.24999999999997
20
84.998999999999995
10
-144.99999999999997
20
84.998999999999995
10
-144.99999999999997
20
88.75
10
-139.99999999999997
20
88.75
10
-139.99999999999997
20
84.998999999999995
10
-134.99999999999997
20
84.998999999999995
10
-134.99999999999997
20
88.75
10
-129.99999999999997
20
88.75
10
-129.99999999999997
20
84.998999999999995
10
-124.99999999999999
20
84.998999999999995
10
-124.99999999999999
20
88.75
10
-119.99999999999999
20
88.75
10
-119.99999999999999
20
84.998999999999995
10
-114.99999999999999
20
84.998999999999995
10
-114.99999999999999
20
88.75
10
-109.99999999999999
20
88.75
10
-109.99999999999999
20
84.998999999999995
10
-104.99999999999999
20
84.998999999999995
10
-104.99999999999999
20
88.75
10
-99.999999999999986
20
88.75
10
-99.999999999999986
20
84.998999999999995
10
-94.999999999999986
20
84.998999999999995
10
-94.999999999999986
20
88.75
10
-89.999999999999986
20
88.75
10
-89.999999999999986
20
84.998999999999995
10
-84.999999999999986
20
84.998999999999995
10
-84.999999999999986
20
88.75
10
-79.999999999999972
20
88.75
10
-79.999999999999972
20
84.998999999999995
10
-74.999999999999972
20
84.998999999999995
10
-74.999999999999972
20
88.75
10
-69.999999999999972
20
88.75
10
-69.999999999999972
20
84.998999999999995
10
-64.999999999999972
20
84.998999999999995
10
-64.999999999999972
20
88.75
10
-59.999999999999964
20
88.75
10
-59.999999999999964
20
84.998999999999995
10
-54.999999999999964
20
84.998999999999995
10
-54.999999999999964
20
88.75
10
-49.999999999999964
20
88.75
10
-49.999999999999964
20
84.998999999999995
10
-44.999999999999964
20
84.998999999999995
10
-44.999999999999964
20
88.75
10
-39.999999999999972
20
88.75
10
-39.999999999999972
20
84.998999999999995
10
-34.999999999999972
20
84.998999999999995
10
-34.999999999999972
20
88.75
10
-29.999999999999979
20
88.75
10
-29.999999999999979
20
84.998999999999995
10
-24.999999999999979
20
84.998999999999995
10
-24.999999999999979
20
88.75
10
-19.999999999999979
20
88.75
10
-19.999999999999979
20
84.998999999999995
10
-14.999999999999979
20
84.998999999999995
10
-14.999999999999979
20
88.75
10
-9.9999999999999769
20
88.75
10
-9.9999999999999769
20
84.998999999999995
10
-4.9999999999999769
20
84.998999999999995
10
-4.9999999999999769
20
88.75
10
2.2870594307278212e-14
20
88.75
10
2.3314683517128287e-14
20
84.998999999999995
10
5.0000000000000231
20
84.998999999999995
10
5.0000000000000231
20
88.75
10
10.000000000000021
20
88.75
10
10.000000000000021
20
84.998999999999995
10
15.000000000000021
20
84.998999999999995
10
15.000000000000021
20
88.75
10
20.000000000000021
20
88.75
10
20.000000000000021
20
84.998999999999995
10
25.000000000000021
20
84.998999999999995
10
25.000000000000021
20
88.75
10
30.000000000000021
20
88.75
10
30.000000000000021
20
84.998999999999995
10
35.000000000000021
20
84.998999999999995
10
35.000000000000021
20
88.75
10
40.000002384185819
20
88.75
10
39.999995956420932
20
-34.999998092651374
10
39.999995956420932
20
-38.749998092651374
10
34.999995956420932
20
-38.749998092651374
10
34.999995956420932
20
-34.999998092651374
10
29.999995956420932
20
-34.999998092651374
10
29.999995956420932
20
-38.749998092651374
10
24.999995956420932
20
-38.749998092651374
10
24.999995956420932
20
-34.999998092651374
10
19.999995956420932
20
-34.999998092651374
10
19.999995956420932
20
-38.749998092651374
10
14.999995956420932
20
-38.749998092651374
10
14.999995956420932
20
-34.999998092651374
10
9.9999959564209338
20
-34.999998092651374
10
9.999995956420932
20
-38.749998092651374
10
4.9999959564209338
20
-38.749998092651374
10
4.9999959564209338
20
-34.999998092651374
10
-4.0435790664705706e-06
20
-34.999998092651374
10
-4.0435790665815929e-06
20
-38.749998092651374
10
-5.0000040435790662
20
-38.749998092651374
10
-5.0000040435790662
20
-34.999998092651374
10
-10.000004043579068
20
-34.999998092651374
10
-10.000004043579068
20
-38.749998092651374
10
-15.000004043579068
20
-38.749998092651374
10
-15.000004043579068
20
-34.999998092651374
10
-20.000004043579068
20
-34.999998092651374
10
-20.000004043579068
20
-38.749998092651374
10
-25.000004043579068
20
-38.749998092651374
10
-25.000004043579068
20
-34.999998092651374
10
-30.000004043579068
20
-34.999998092651374
10
-30.000004043579068
20
-38.749998092651374
10
-35.000004043579068
20
-38.749998092651374
10
-35.000004043579068
20
-34.999998092651374
10
-40.000004043579061
20
-34.999998092651374
10
-40.000004043579061
20
-38.749998092651374
10
-45.000004043579061
20
-38.749998092651374
10
-45.000004043579061
20
-34.999998092651374
10
-50.000004043579061
20
-34.999998092651374
10
-50.000004043579061
20
-38.749998092651374
10
-55.000004043579061
20
-38.749998092651374
10
-55.000004043579061
20
-34.999998092651374
10
-60.000004043579061
20
-34.999998092651374
10
-60.000004043579061
20
-38.749998092651374
10
-65.000004043579068
20
-38.749998092651374
10
-65.000004043579068
20
-34.999998092651374
10
-70.000004043579068
20
-34.999998092651374
10
-70.000004043579068
20
-38.749998092651374
10
-75.000004043579068
20
-38.749998092651374
10
-75.000004043579068
20
-34.999998092651374
10
-80.000004043579068
20
-34.999998092651374
10
-80.000004043579068
20
-38.749998092651374
10
-85.000004043579068
20
-38.749998092651374
10
-85.000004043579068
20
-34.999998092651374
10
-90.000004043579068
20
-34.999998092651374
10
-90.000004043579068
20
-38.749998092651374
10
-95.000004043579068
20
-38.749998092651374
10
-95.000004043579068
20
-34.999998092651374
10
-99.545458589033615
20
-34.999998138284127
10
-99.545458589033615
20
-38.749998138284127
10
-104.04545477433632
20
-38.749998138284127
10
-104.04545477433632
20
-34.999998138284127
10
-108.63636767994271
20
-34.999998229549632
10
-108.63636767994271
20
-38.749998229549632
10
-113.13636386524541
20
-38.749998229549632
10
-113.13636386524541
20
-34.999998229549632
10
-117.7272767708518
20
-34.999998320815138
10
-117.7272767708518
20
-38.749998320815138
10
-122.22727295615451
20
-38.749998320815138
10
-122.22727295615451
20
-34.999998320815138
10
-126.8181858617609
20
-34.999998412080643
10
-126.8181858617609
20
-38.749998412080643
10
-131.3181820470636
20
-38.749998412080643
10
-131.3181820470636
20
-34.999998412080643
10
-135.90909495266996
20
-34.999998503346148
10
-135.90909495266996
20
-38.749998503346148
10
-140.40909113797267
20
-38.749998503346148
10
-140.40909113797267
20
-34.999998503346148
10
-145.00000404357908
20
-34.999998594611654
0
ENDSEC
0
SECTION
2
OBJECTS
0
DICTIONARY
5
C
100
AcDbDictionary
3
ACAD_GROUP
350
D
3
ACAD_MLINESTYLE
350
17
0
DICTIONARY
5
D
100
AcDbDictionary
0
DICTIONARY
5
1A
330
C
100
AcDbDictionary
0
DICTIONARY
5
17
100
AcDbDictionary
0
ENDSEC
0
EOF
