0
SECTION
2
HEADER
9
$INSUNITS
70
4
9
$ACADVER
1
AC1014
9
$HANDSEED
5
FFFF
0
ENDSEC
0
SECTION
2
TABLES
0
TABLE
2
VPORT
5
8
100
AcDbSymbolTable
0
ENDTAB
0
TABLE
2
LTYPE
5
5
100
AcDbSymbolTable
0
LTYPE
5
14
100
AcDbSymbolTableRecord
100
AcDbLinetypeTableRecord
2
BYBLOCK
70
0
0
LTYPE
5
15
100
AcDbSymbolTableRecord
100
AcDbLinetypeTableRecord
2
BYLAYER
70
0
0
ENDTAB
0
TABLE
2
LAYER
5
2
100
AcDbSymbolTable
70
2
0
LAYER
5
50
100
AcDbSymbolTableRecord
100
AcDbLayerTableRecord
2
0
70
0
6
CONTINUOUS
0
ENDTAB
0
TABLE
2
STYLE
5
3
100
AcDbSymbolTable
70
1
0
STYLE
5
11
100
AcDbSymbolTableRecord
100
AcDbTextStyleTableRecord
2
STANDARD
70
0
0
ENDTAB
0
TABLE
2
VIEW
5
6
100
AcDbSymbolTable
70
0
0
ENDTAB
0
TABLE
2
UCS
5
7
100
AcDbSymbolTable
70
0
0
ENDTAB
0
TABLE
2
APPID
5
9
100
AcDbSymbolTable
70
2
0
APPID
5
12
100
AcDbSymbolTableRecord
100
AcDbRegAppTableRecord
2
ACAD
70
0
0
ENDTAB
0
TABLE
2
DIMSTYLE
5
A
100
AcDbSymbolTable
70
1
0
ENDTAB
0
TABLE
2
BLOCK_RECORD
5
1
100
AcDbSymbolTable
70
1
0
BLOCK_RECORD
5
1F
100
AcDbSymbolTableRecord
100
AcDbBlockTableRecord
2
*MODEL_SPACE
0
BLOCK_RECORD
5
1B
100
AcDbSymbolTableRecord
100
AcDbBlockTableRecord
2
*PAPER_SPACE
0
ENDTAB
0
ENDSEC
0
SECTION
2
BLOCKS
0
BLOCK
5
20
100
AcDbEntity
100
AcDbBlockBegin
2
*MODEL_SPACE
0
ENDBLK
5
21
100
AcDbEntity
100
AcDbBlockEnd
0
BLOCK
5
1C
100
AcDbEntity
100
AcDbBlockBegin
2
*PAPER_SPACE
0
ENDBLK
5
1D
100
AcDbEntity
100
AcDbBlockEnd
0
ENDSEC
0
SECTION
2
ENTITIES
0
LWPOLYLINE
5
100
100
AcDbEntity
8
0
100
AcDbPolyline
90
4
70
1
43
0.0
10
26.607142857142883
20
1.3513634655737403e-13
10
31.107139042445588
20
1.3489209749195652e-13
10
31.107139042445588
20
3.750000000000135
10
26.607142857142883
20
3.750000000000135
0
LWPOLYLINE
5
101
100
AcDbEntity
8
0
100
AcDbPolyline
90
4
70
1
43
0.0
10
-23.678571428571406
20
1.3513634655737403e-13
10
-19.178575243268703
20
1.3489209749195652e-13
10
-19.178575243268703
20
3.750000000000135
10
-23.678571428571406
20
3.750000000000135
0
LWPOLYLINE
5
102
100
AcDbEntity
8
0
100
AcDbPolyline
90
4
70
1
43
0.0
10
-11.107142857142836
20
1.3513634655737403e-13
10
-6.6071466718401286
20
1.3489209749195652e-13
10
-6.6071466718401286
20
3.750000000000135
10
-11.107142857142836
20
3.750000000000135
0
LWPOLYLINE
5
103
100
AcDbEntity
8
0
100
AcDbPolyline
90
4
70
1
43
0.0
10
39.178571428571459
20
1.3513634655737403e-13
10
43.678567613874158
20
1.3489209749195652e-13
10
43.678567613874158
20
3.750000000000135
10
39.178571428571459
20
3.750000000000135
0
LWPOLYLINE
5
104
100
AcDbEntity
8
0
100
AcDbPolyline
90
4
70
1
43
0.0
10
14.035714285714311
20
1.3513634655737403e-13
10
18.535710471017019
20
1.3489209749195652e-13
10
18.535710471017019
20
3.750000000000135
10
14.035714285714311
20
3.750000000000135
0
LWPOLYLINE
5
105
100
AcDbEntity
8
0
100
AcDbPolyline
90
4
70
1
43
0.0
10
-36.249999999999986
20
1.3513634655737403e-13
10
-31.750003814697276
20
1.3489209749195652e-13
10
-31.750003814697276
20
3.750000000000135
10
-36.249999999999986
20
3.750000000000135
0
LWPOLYLINE
5
106
100
AcDbEntity
8
0
100
AcDbPolyline
90
4
70
1
43
0.0
10
1.4642857142857413
20
1.3513634655737403e-13
10
5.964281899588447
20
1.3489209749195652e-13
10
5.964281899588447
20
3.750000000000135
10
1.4642857142857406
20
3.750000000000135
0
LWPOLYLINE
5
107
100
AcDbEntity
8
0
100
AcDbPolyline
90
4
70
1
43
0.0
10
51.750000000000014
20
1.3513634655737403e-13
10
56.24999618530272
20
1.3489209749195652e-13
10
56.24999618530272
20
3.750000000000135
10
51.750000000000014
20
3.750000000000135
0
LWPOLYLINE
5
108
100
AcDbEntity
8
0
100
AcDbPolyline
90
158
70
1
43
0.0
10
149.50001362609856
20
85
10
149.50001362609856
20
-35.000000203937056
10
149.50000967407223
20
-38.750000203937056
10
145.00001348876953
20
-38.750000203937056
10
145.00001348876953
20
-35.000000203937056
10
140.40910058316311
20
-35.00000011267155
10
140.40910058316311
20
-38.750000112671543
10
135.9091043978604
20
-38.750000112671543
10
135.9091043978604
20
-35.00000011267155
10
131.31819149225404
20
-35.000000021406045
10
131.31819149225404
20
-38.750000021406038
10
126.81819530695134
20
-38.750000021406038
10
126.81819530695134
20
-35.000000021406045
10
122.22728240134495
20
-34.99999993014054
10
122.22728240134495
20
-38.74999993014054
10
117.72728621604224
20
-38.74999993014054
10
117.72728621604224
20
-34.99999993014054
10
113.13637331043586
20
-34.999999838875034
10
113.13637331043586
20
-38.749999838875034
10
108.63637712513315
20
-38.749999838875034
10
108.63637712513315
20
-34.999999838875034
10
104.04546421952676
20
-34.999999747609529
10
104.04546421952676
20
-38.749999747609529
10
99.545468034224058
20
-38.749999747609529
10
99.545468034224058
20
-34.999999747609529
10
95.000013488769511
20
-34.999999701976776
10
95.000013488769511
20
-38.749999701976776
10
90.000013488769511
20
-38.749999701976776
10
90.000013488769511
20
-34.999999701976776
10
85.000013488769511
20
-34.999999701976776
10
85.000013488769511
20
-38.749999701976776
10
80.000013488769511
20
-38.749999701976776
10
80.000013488769511
20
-34.999999701976776
10
75.000013488769511
20
-34.999999701976776
10
75.000013488769511
20
-38.749999701976776
10
70.000013488769511
20
-38.749999701976776
10
70.000013488769511
20
-34.999999701976776
10
65.000013488769511
20
-34.999999701976776
10
65.000013488769511
20
-38.749999701976776
10
60.000013488769511
20
-38.749999701976776
10
60.000013488769511
20
-34.999999701976776
10
55.000013488769511
20
-34.999999701976776
10
55.000013488769511
20
-38.749999701976776
10
50.000013488769511
20
-38.749999701976776
10
50.000013488769511
20
-34.999999701976776
10
45.000013488769511
20
-34.999999701976776
10
45.000013488769511
20
-38.749999701976776
10
40.000013488769511
20
-38.749999701976776
10
40.000013488769511
20
-34.999999701976776
10
35.000013488769511
20
-34.999999701976776
10
35.000013488769511
20
-38.749999701976776
10
30.000013488769515
20
-38.749999701976776
10
30.000013488769515
20
-34.999999701976776
10
25.000013488769515
20
-34.999999701976776
10
25.000013488769515
20
-38.749999701976776
10
20.000013488769515
20
-38.749999701976776
10
20.000013488769515
20
-34.999999701976776
10
15.000013488769515
20
-34.999999701976776
10
15.000013488769515
20
-38.749999701976776
10
10.000013488769515
20
-38.749999701976776
10
10.000013488769515
20
-34.999999701976776
10
5.0000134887695156
20
-34.999999701976776
10
5.0000134887695156
20
-38.749999701976776
10
1.3488769515568322e-05
20
-38.749999701976776
10
1.3488769515790366e-05
20
-34.999999701976776
10
-4.9999865112304844
20
-34.999999701976776
10
-4.9999865112304844
20
-38.749999701976776
10
-9.9999865112304835
20
-38.749999701976776
10
-9.9999865112304835
20
-34.999999701976776
10
-14.999986511230485
20
-34.999999701976776
10
-14.999986511230485
20
-38.749999701976776
10
-19.999986511230485
20
-38.749999701976776
10
-19.999986511230485
20
-34.999999701976776
10
-24.999986511230485
20
-34.999999701976776
10
-24.999986511230485
20
-38.749999701976776
10
-29.999986511230485
20
-38.749999701976776
10
-29.999986511230485
20
-34.999999701976776
10
-34.999986511230489
20
-34.999999701976776
10
-34.999986511230489
20
-38.749999701976776
10
-39.999986511230489
20
-38.749999701976776
10
-39.999990554809571
20
-34.999999701976776
10
-39.99998817062378
20
88.75
10
-34.999990554809571
20
88.75
10
-34.999990554809571
20
84.990000000000009
10
-29.999990554809575
20
84.990000000000009
10
-29.999990554809575
20
88.75
10
-24.999990554809575
20
88.75
10
-24.999990554809575
20
84.990000000000009
10
-19.999990554809575
20
84.990000000000009
10
-19.999990554809575
20
88.75
10
-14.999990554809575
20
88.75
10
-14.999990554809575
20
84.990000000000009
10
-9.9999905548095729
20
84.990000000000009
10
-9.9999905548095729
20
88.75
10
-4.9999905548095738
20
88.75
10
-4.9999905548095738
20
84.990000000000009
10
9.4451904262271569e-06
20
84.990000000000009
10
9.4451904264492015e-06
20
88.75
10
5.0000094451904262
20
88.75
10
5.0000094451904262
20
84.990000000000009
10
10.000009445190425
20
84.990000000000009
10
10.000009445190425
20
88.75
10
15.000009445190425
20
88.75
10
15.000009445190425
20
84.990000000000009
10
20.000009445190425
20
84.990000000000009
10
20.000009445190425
20
88.75
10
25.000009445190425
20
88.75
10
25.000009445190425
20
84.990000000000009
10
30.000009445190425
20
84.990000000000009
10
30.000009445190425
20
88.75
10
35.000009445190415
20
88.75
10
35.000009445190415
20
84.990000000000009
10
40.000009445190415
20
84.990000000000009
10
40.000009445190415
20
88.75
10
45.000009445190415
20
88.75
10
45.000009445190415
20
84.990000000000009
10
50.000009445190415
20
84.990000000000009
10
50.000009445190415
20
88.75
10
55.000009445190415
20
88.75
10
55.000009445190415
20
84.990000000000009
10
60.000009445190415
20
84.990000000000009
10
60.000009445190415
20
88.75
10
65.000009445190415
20
88.75
10
65.000009445190415
20
84.990000000000009
10
70.000009445190415
20
84.990000000000009
10
70.000009445190415
20
88.75
10
75.000009445190415
20
88.75
10
75.000009445190415
20
84.990000000000009
10
80.000009445190429
20
84.990000000000009
10
80.000009445190429
20
88.75
10
85.000009445190429
20
88.75
10
85.000009445190429
20
84.990000000000009
10
90.000009445190429
20
84.990000000000009
10
90.000009445190429
20
88.75
10
95.000009445190429
20
88.75
10
95.000009445190429
20
84.990000000000009
10
100.00000944519043
20
84.990000000000009
10
100.00000944519043
20
88.75
10
105.00000944519043
20
88.75
10
105.00000944519043
20
84.990000000000009
10
110.00000944519043
20
84.990000000000009
10
110.00000944519043
20
88.75
10
115.00000944519043
20
88.75
10
115.00000944519043
20
84.990000000000009
10
120.00000944519043
20
84.990000000000009
10
120.00000944519043
20
88.75
10
125.00000944519043
20
88.75
10
125.00000944519043
20
84.990000000000009
10
130.00000944519041
20
84.990000000000009
10
130.00000944519041
20
88.75
10
135.00000944519041
20
88.75
10
135.00000944519041
20
84.990000000000009
10
140.00000944519041
20
84.990000000000009
10
140.00000944519041
20
88.75
10
145.00000944519041
20
88.75
10
145.00000944519041
20
84.990000000000009
10
146.25000944519041
20
84.990000000000009
10
146.25000944519041
20
85
0
LWPOLYLINE
5
109
100
AcDbEntity
8
0
100
AcDbPolyline
90
4
70
1
43
0.0
10
18.375466187652858
20
-28.094662250565356
10
18.375466187652858
20
-18.094662250565356
10
-11.624533812347142
20
-18.094662250565356
10
-11.624533812347142
20
-28.094662250565356
0
LWPOLYLINE
5
110
100
AcDbEntity
8
0
100
AcDbPolyline
90
4
70
1
43
0.0
10
9.4451904262271569e-06
20
71.25
10
9.4451904253389785e-06
20
81.25
10
-29.999990554809575
20
81.25
10
-29.999990554809575
20
71.25
0
ENDSEC
0
SECTION
2
OBJECTS
0
DICTIONARY
5
C
100
AcDbDictionary
3
ACAD_GROUP
350
D
3
ACAD_MLINESTYLE
350
17
0
DICTIONARY
5
D
100
AcDbDictionary
0
DICTIONARY
5
1A
330
C
100
AcDbDictionary
0
DICTIONARY
5
17
100
AcDbDictionary
0
ENDSEC
0
EOF
