0
SECTION
2
HEADER
9
$INSUNITS
70
4
9
$ACADVER
1
AC1014
9
$HANDSEED
5
FFFF
0
ENDSEC
0
SECTION
2
TABLES
0
TABLE
2
VPORT
5
8
100
AcDbSymbolTable
0
ENDTAB
0
TABLE
2
LTYPE
5
5
100
AcDbSymbolTable
0
LTYPE
5
14
100
AcDbSymbolTableRecord
100
AcDbLinetypeTableRecord
2
BYBLOCK
70
0
0
LTYPE
5
15
100
AcDbSymbolTableRecord
100
AcDbLinetypeTableRecord
2
BYLAYER
70
0
0
ENDTAB
0
TABLE
2
LAYER
5
2
100
AcDbSymbolTable
70
2
0
LAYER
5
50
100
AcDbSymbolTableRecord
100
AcDbLayerTableRecord
2
0
70
0
6
CONTINUOUS
0
ENDTAB
0
TABLE
2
STYLE
5
3
100
AcDbSymbolTable
70
1
0
STYLE
5
11
100
AcDbSymbolTableRecord
100
AcDbTextStyleTableRecord
2
STANDARD
70
0
0
ENDTAB
0
TABLE
2
VIEW
5
6
100
AcDbSymbolTable
70
0
0
ENDTAB
0
TABLE
2
UCS
5
7
100
AcDbSymbolTable
70
0
0
ENDTAB
0
TABLE
2
APPID
5
9
100
AcDbSymbolTable
70
2
0
APPID
5
12
100
AcDbSymbolTableRecord
100
AcDbRegAppTableRecord
2
ACAD
70
0
0
ENDTAB
0
TABLE
2
DIMSTYLE
5
A
100
AcDbSymbolTable
70
1
0
ENDTAB
0
TABLE
2
BLOCK_RECORD
5
1
100
AcDbSymbolTable
70
1
0
BLOCK_RECORD
5
1F
100
AcDbSymbolTableRecord
100
AcDbBlockTableRecord
2
*MODEL_SPACE
0
BLOCK_RECORD
5
1B
100
AcDbSymbolTableRecord
100
AcDbBlockTableRecord
2
*PAPER_SPACE
0
ENDTAB
0
ENDSEC
0
SECTION
2
BLOCKS
0
BLOCK
5
20
100
AcDbEntity
100
AcDbBlockBegin
2
*MODEL_SPACE
0
ENDBLK
5
21
100
AcDbEntity
100
AcDbBlockEnd
0
BLOCK
5
1C
100
AcDbEntity
100
AcDbBlockBegin
2
*PAPER_SPACE
0
ENDBLK
5
1D
100
AcDbEntity
100
AcDbBlockEnd
0
ENDSEC
0
SECTION
2
ENTITIES
0
LINE
5
100
100
AcDbEntity
8
0
100
AcDbLine
10
-82.999999999999915
20
-38.75
30
3.5527136788005009e-14
11
64.000004768371653
21
-38.75
31
4.4408920985006262e-14
0
LINE
5
101
100
AcDbEntity
8
0
100
AcDbLine
10
64.000004768371653
20
-38.75
30
4.4408920985006262e-14
11
64.00000476837161
21
85
31
-8.8817841970012523e-15
0
LINE
5
102
100
AcDbEntity
8
0
100
AcDbLine
10
64.00000476837161
20
85
30
-8.8817841970012523e-15
11
64.00000476837161
21
88.75
31
4.0435790982229491e-06
0
LINE
5
103
100
AcDbEntity
8
0
100
AcDbLine
10
64.00000476837161
20
88.75
30
4.0435790982229491e-06
11
56.49999618530277
21
88.75
31
4.0435790982229491e-06
0
LINE
5
104
100
AcDbEntity
8
0
100
AcDbLine
10
56.49999618530277
20
88.75
30
4.0435790982229491e-06
11
51.49999618530277
21
88.75
31
4.0435790982229491e-06
0
LINE
5
105
100
AcDbEntity
8
0
100
AcDbLine
10
51.49999618530277
20
88.75
30
4.0435790982229491e-06
11
46.49999618530277
21
88.75
31
4.0435790982229491e-06
0
LINE
5
106
100
AcDbEntity
8
0
100
AcDbLine
10
46.49999618530277
20
88.75
30
4.0435790982229491e-06
11
41.49999618530277
21
88.75
31
4.0435790982229491e-06
0
LINE
5
107
100
AcDbEntity
8
0
100
AcDbLine
10
41.49999618530277
20
88.75
30
4.0435790982229491e-06
11
36.49999618530277
21
88.75
31
4.0435790982229491e-06
0
LINE
5
108
100
AcDbEntity
8
0
100
AcDbLine
10
36.49999618530277
20
88.75
30
4.0435790982229491e-06
11
31.49999618530277
21
88.75
31
4.0435790982229491e-06
0
LINE
5
109
100
AcDbEntity
8
0
100
AcDbLine
10
31.49999618530277
20
88.75
30
4.0435790982229491e-06
11
26.49999618530277
21
88.75
31
4.0435790982229491e-06
0
LINE
5
110
100
AcDbEntity
8
0
100
AcDbLine
10
26.49999618530277
20
88.75
30
4.0435790982229491e-06
11
21.49999618530277
21
88.75
31
4.0435790982229491e-06
0
LINE
5
111
100
AcDbEntity
8
0
100
AcDbLine
10
21.49999618530277
20
88.75
30
4.0435790982229491e-06
11
16.49999618530277
21
88.75
31
4.0435790982229491e-06
0
LINE
5
112
100
AcDbEntity
8
0
100
AcDbLine
10
16.49999618530277
20
88.75
30
4.0435790982229491e-06
11
11.49999618530277
21
88.75
31
4.0435790982229491e-06
0
LINE
5
113
100
AcDbEntity
8
0
100
AcDbLine
10
11.49999618530277
20
88.75
30
4.0435790982229491e-06
11
6.4999961853027699
21
88.75
31
4.0435790982229491e-06
0
LINE
5
114
100
AcDbEntity
8
0
100
AcDbLine
10
6.4999961853027699
20
88.75
30
4.0435790982229491e-06
11
1.4999961853027699
21
88.75
31
4.0435790982229491e-06
0
LINE
5
115
100
AcDbEntity
8
0
100
AcDbLine
10
1.4999961853027699
20
88.75
30
4.0435790982229491e-06
11
-3.5000038146972301
21
88.75
31
4.0435790982229491e-06
0
LINE
5
116
100
AcDbEntity
8
0
100
AcDbLine
10
-3.5000038146972301
20
88.75
30
4.0435790982229491e-06
11
-8.5000038146972301
21
88.75
31
4.0435790982229491e-06
0
LINE
5
117
100
AcDbEntity
8
0
100
AcDbLine
10
-8.5000038146972301
20
88.75
30
4.0435790982229491e-06
11
-13.50000381469723
21
88.75
31
4.0435790982229491e-06
0
LINE
5
118
100
AcDbEntity
8
0
100
AcDbLine
10
-13.50000381469723
20
88.75
30
4.0435790982229491e-06
11
-18.50000381469723
21
88.75
31
4.0435790982229491e-06
0
LINE
5
119
100
AcDbEntity
8
0
100
AcDbLine
10
-18.50000381469723
20
88.75
30
4.0435790982229491e-06
11
-23.50000381469723
21
88.75
31
4.0435790982229491e-06
0
LINE
5
120
100
AcDbEntity
8
0
100
AcDbLine
10
-23.50000381469723
20
88.75
30
4.0435790982229491e-06
11
-28.50000381469723
21
88.75
31
4.0435790982229491e-06
0
LINE
5
121
100
AcDbEntity
8
0
100
AcDbLine
10
-28.50000381469723
20
88.75
30
4.0435790982229491e-06
11
-33.50000381469723
21
88.75
31
4.0435790982229491e-06
0
LINE
5
122
100
AcDbEntity
8
0
100
AcDbLine
10
-33.50000381469723
20
88.75
30
4.0435790982229491e-06
11
-38.50000381469723
21
88.75
31
4.0435790982229491e-06
0
LINE
5
123
100
AcDbEntity
8
0
100
AcDbLine
10
-38.50000381469723
20
88.75
30
4.0435790982229491e-06
11
-43.50000381469723
21
88.75
31
4.0435790982229491e-06
0
LINE
5
124
100
AcDbEntity
8
0
100
AcDbLine
10
-43.50000381469723
20
88.75
30
4.0435790982229491e-06
11
-48.50000381469723
21
88.75
31
4.0435790982229491e-06
0
LINE
5
125
100
AcDbEntity
8
0
100
AcDbLine
10
-48.50000381469723
20
88.75
30
4.0435790982229491e-06
11
-53.50000381469723
21
88.75
31
4.0435790982229491e-06
0
LINE
5
126
100
AcDbEntity
8
0
100
AcDbLine
10
-53.50000381469723
20
88.75
30
4.0435790982229491e-06
11
-58.50000381469723
21
88.75
31
4.0435790982229491e-06
0
LINE
5
127
100
AcDbEntity
8
0
100
AcDbLine
10
-58.50000381469723
20
88.75
30
4.0435790982229491e-06
11
-63.50000381469723
21
88.75
31
4.0435790982229491e-06
0
LINE
5
128
100
AcDbEntity
8
0
100
AcDbLine
10
-63.50000381469723
20
88.75
30
4.0435790982229491e-06
11
-68.500003814697237
21
88.75
31
4.0435790982229491e-06
0
LINE
5
129
100
AcDbEntity
8
0
100
AcDbLine
10
-68.500003814697237
20
88.75
30
4.0435790982229491e-06
11
-73.500003814697237
21
88.75
31
4.0435790982229491e-06
0
LINE
5
130
100
AcDbEntity
8
0
100
AcDbLine
10
-73.500003814697237
20
88.75
30
4.0435790982229491e-06
11
-78.500003814697237
21
88.75
31
4.0435790982229491e-06
0
LINE
5
131
100
AcDbEntity
8
0
100
AcDbLine
10
-78.500003814697237
20
88.75
30
4.0435790982229491e-06
11
-82.999999999999957
21
88.75
31
4.0435790982229491e-06
0
LINE
5
132
100
AcDbEntity
8
0
100
AcDbLine
10
-82.999999999999957
20
88.75
30
4.0435790982229491e-06
11
-82.999999999999957
21
85
31
4.0435790982229491e-06
0
LINE
5
133
100
AcDbEntity
8
0
100
AcDbLine
10
-82.999999999999957
20
85
30
4.0435790982229491e-06
11
-83.000003814697223
21
-35
31
-8.8817841970012523e-15
0
LINE
5
134
100
AcDbEntity
8
0
100
AcDbLine
10
-83.000003814697223
20
-35
30
-8.8817841970012523e-15
11
-82.999999999999915
21
-38.75
31
3.5527136788005009e-14
0
ENDSEC
0
SECTION
2
OBJECTS
0
DICTIONARY
5
C
100
AcDbDictionary
3
ACAD_GROUP
350
D
3
ACAD_MLINESTYLE
350
17
0
DICTIONARY
5
D
100
AcDbDictionary
0
DICTIONARY
5
1A
330
C
100
AcDbDictionary
0
DICTIONARY
5
17
100
AcDbDictionary
0
ENDSEC
0
EOF
