0
SECTION
2
HEADER
9
$INSUNITS
70
4
9
$ACADVER
1
AC1014
9
$HANDSEED
5
FFFF
0
ENDSEC
0
SECTION
2
TABLES
0
TABLE
2
VPORT
5
8
100
AcDbSymbolTable
0
ENDTAB
0
TABLE
2
LTYPE
5
5
100
AcDbSymbolTable
0
LTYPE
5
14
100
AcDbSymbolTableRecord
100
AcDbLinetypeTableRecord
2
BYBLOCK
70
0
0
LTYPE
5
15
100
AcDbSymbolTableRecord
100
AcDbLinetypeTableRecord
2
BYLAYER
70
0
0
ENDTAB
0
TABLE
2
LAYER
5
2
100
AcDbSymbolTable
70
2
0
LAYER
5
50
100
AcDbSymbolTableRecord
100
AcDbLayerTableRecord
2
0
70
0
6
CONTINUOUS
0
ENDTAB
0
TABLE
2
STYLE
5
3
100
AcDbSymbolTable
70
1
0
STYLE
5
11
100
AcDbSymbolTableRecord
100
AcDbTextStyleTableRecord
2
STANDARD
70
0
0
ENDTAB
0
TABLE
2
VIEW
5
6
100
AcDbSymbolTable
70
0
0
ENDTAB
0
TABLE
2
UCS
5
7
100
AcDbSymbolTable
70
0
0
ENDTAB
0
TABLE
2
APPID
5
9
100
AcDbSymbolTable
70
2
0
APPID
5
12
100
AcDbSymbolTableRecord
100
AcDbRegAppTableRecord
2
ACAD
70
0
0
ENDTAB
0
TABLE
2
DIMSTYLE
5
A
100
AcDbSymbolTable
70
1
0
ENDTAB
0
TABLE
2
BLOCK_RECORD
5
1
100
AcDbSymbolTable
70
1
0
BLOCK_RECORD
5
1F
100
AcDbSymbolTableRecord
100
AcDbBlockTableRecord
2
*MODEL_SPACE
0
BLOCK_RECORD
5
1B
100
AcDbSymbolTableRecord
100
AcDbBlockTableRecord
2
*PAPER_SPACE
0
ENDTAB
0
ENDSEC
0
SECTION
2
BLOCKS
0
BLOCK
5
20
100
AcDbEntity
100
AcDbBlockBegin
2
*MODEL_SPACE
0
ENDBLK
5
21
100
AcDbEntity
100
AcDbBlockEnd
0
BLOCK
5
1C
100
AcDbEntity
100
AcDbBlockBegin
2
*PAPER_SPACE
0
ENDBLK
5
1D
100
AcDbEntity
100
AcDbBlockEnd
0
ENDSEC
0
SECTION
2
ENTITIES
0
LWPOLYLINE
5
100
100
AcDbEntity
8
0
100
AcDbPolyline
90
4
70
1
43
0.0
10
172.75000000000009
20
172.53100000000001
10
169.00000000000009
20
172.53100000000001
10
169.00000000000003
20
168.78136351354925
10
172.75000000000003
20
168.78136351354925
0
LWPOLYLINE
5
101
100
AcDbEntity
8
0
100
AcDbPolyline
90
4
70
1
43
0.0
10
181.25000000000006
20
172.53100000000001
10
177.50000000000006
20
172.53100000000001
10
177.5
20
168.78136351354925
10
181.25
20
168.78136351354925
0
LWPOLYLINE
5
102
100
AcDbEntity
8
0
100
AcDbPolyline
90
4
70
1
43
0.0
10
189.75000000000009
20
172.53100000000001
10
186.00000000000009
20
172.53100000000001
10
186
20
168.78136351354925
10
189.75
20
168.78136351354925
0
LWPOLYLINE
5
103
100
AcDbEntity
8
0
100
AcDbPolyline
90
71
70
1
43
0.0
10
163.00000762939459
20
183
10
193.25
20
183
10
193.25
20
178
10
197
20
178
10
197
20
173
10
193.25
20
173
10
193.25
20
168
10
197
20
168
10
197
20
163
10
193.25
20
163
10
193.25
20
158
10
197
20
158
10
197
20
153
10
193.25
20
153
10
193.25
20
148
10
197
20
148
10
197
20
143
10
193.25
20
143
10
193.25
20
138
10
197
20
138
10
197
20
133
10
193.25
20
133
10
193.25
20
128
10
197
20
128
10
197
20
123
10
193.25
20
123
10
193.25
20
118
10
197
20
118
10
197
20
113
10
193.25
20
113
10
193.25
20
108
10
197
20
108
10
197
20
103
10
193.25
20
103
10
193.25
20
98
10
197
20
98
10
197
20
85.759998092651387
10
163.00000000000009
20
85.759998092651387
10
163.00000000000009
20
98
10
166.75000000000009
20
98
10
166.75000000000009
20
103
10
163.00000000000009
20
103
10
163.00000000000009
20
108
10
166.75000000000009
20
108
10
166.75000000000009
20
113
10
163.00000000000006
20
113
10
163.00000000000006
20
118
10
166.75000000000009
20
118
10
166.75000000000009
20
123
10
163.00000000000006
20
123
10
163.00000000000006
20
128
10
166.75000000000009
20
128
10
166.75000000000006
20
133
10
163.00000000000006
20
133
10
163.00000000000006
20
138
10
166.75000000000006
20
138
10
166.75000000000006
20
143
10
162.99998855590829
20
143
10
162.99998855590829
20
148
10
166.75000000000006
20
148
10
166.75000000000006
20
153
10
163.00000000000006
20
153
10
163.00000000000006
20
158
10
166.75000000000006
20
158
10
166.75000000000006
20
163
10
163.00000000000006
20
163
10
163.00000000000006
20
168
10
166.75000000000006
20
168
10
166.75000000000006
20
173
10
163.00000000000006
20
173
10
163.00000762939462
20
178
0
ENDSEC
0
SECTION
2
OBJECTS
0
DICTIONARY
5
C
100
AcDbDictionary
3
ACAD_GROUP
350
D
3
ACAD_MLINESTYLE
350
17
0
DICTIONARY
5
D
100
AcDbDictionary
0
DICTIONARY
5
1A
330
C
100
AcDbDictionary
0
DICTIONARY
5
17
100
AcDbDictionary
0
ENDSEC
0
EOF
