0
SECTION
2
HEADER
9
$INSUNITS
70
4
9
$ACADVER
1
AC1014
9
$HANDSEED
5
FFFF
0
ENDSEC
0
SECTION
2
TABLES
0
TABLE
2
VPORT
5
8
100
AcDbSymbolTable
0
ENDTAB
0
TABLE
2
LTYPE
5
5
100
AcDbSymbolTable
0
LTYPE
5
14
100
AcDbSymbolTableRecord
100
AcDbLinetypeTableRecord
2
BYBLOCK
70
0
0
LTYPE
5
15
100
AcDbSymbolTableRecord
100
AcDbLinetypeTableRecord
2
BYLAYER
70
0
0
ENDTAB
0
TABLE
2
LAYER
5
2
100
AcDbSymbolTable
70
2
0
LAYER
5
50
100
AcDbSymbolTableRecord
100
AcDbLayerTableRecord
2
0
70
0
6
CONTINUOUS
0
ENDTAB
0
TABLE
2
STYLE
5
3
100
AcDbSymbolTable
70
1
0
STYLE
5
11
100
AcDbSymbolTableRecord
100
AcDbTextStyleTableRecord
2
STANDARD
70
0
0
ENDTAB
0
TABLE
2
VIEW
5
6
100
AcDbSymbolTable
70
0
0
ENDTAB
0
TABLE
2
UCS
5
7
100
AcDbSymbolTable
70
0
0
ENDTAB
0
TABLE
2
APPID
5
9
100
AcDbSymbolTable
70
2
0
APPID
5
12
100
AcDbSymbolTableRecord
100
AcDbRegAppTableRecord
2
ACAD
70
0
0
ENDTAB
0
TABLE
2
DIMSTYLE
5
A
100
AcDbSymbolTable
70
1
0
ENDTAB
0
TABLE
2
BLOCK_RECORD
5
1
100
AcDbSymbolTable
70
1
0
BLOCK_RECORD
5
1F
100
AcDbSymbolTableRecord
100
AcDbBlockTableRecord
2
*MODEL_SPACE
0
BLOCK_RECORD
5
1B
100
AcDbSymbolTableRecord
100
AcDbBlockTableRecord
2
*PAPER_SPACE
0
ENDTAB
0
ENDSEC
0
SECTION
2
BLOCKS
0
BLOCK
5
20
100
AcDbEntity
100
AcDbBlockBegin
2
*MODEL_SPACE
0
ENDBLK
5
21
100
AcDbEntity
100
AcDbBlockEnd
0
BLOCK
5
1C
100
AcDbEntity
100
AcDbBlockBegin
2
*PAPER_SPACE
0
ENDBLK
5
1D
100
AcDbEntity
100
AcDbBlockEnd
0
ENDSEC
0
SECTION
2
ENTITIES
0
LWPOLYLINE
5
100
100
AcDbEntity
8
0
100
AcDbPolyline
90
64
70
1
43
0.0
10
-60.25
20
-39.178571428571452
10
-60.25
20
-31.107139042445581
10
-63.950000000000024
20
-31.107139042445574
10
-63.950000000000024
20
-26.607142857142868
10
-60.25
20
-26.607142857142868
10
-60.25
20
-18.535710471017005
10
-63.950000000000024
20
-18.535710471017005
10
-63.950000000000024
20
-14.035714285714299
10
-60.25
20
-14.035714285714299
10
-60.25
20
-5.9642818995884328
10
-63.950000000000024
20
-5.9642818995884328
10
-63.950000000000024
20
-1.4642857142857268
10
-60.25
20
-1.464285714285728
10
-60.25
20
6.6071466718401419
10
-63.950000000000024
20
6.6071466718401428
10
-63.950000000000024
20
11.107142857142849
10
-60.25
20
11.107142857142849
10
-60.25
20
19.178575243268714
10
-63.950000000000024
20
19.178575243268718
10
-63.950000000000024
20
23.67857142857142
10
-60.25
20
23.67857142857142
10
-60.25
20
31.75000381469729
10
-63.950000000000024
20
31.75000381469729
10
-63.950000000000031
20
36.249999999999993
10
83
20
36.249999999999993
10
83
20
31.75000381469729
10
79.25
20
31.75000381469729
10
79.25
20
23.67857142857142
10
83
20
23.67857142857142
10
83
20
19.178575243268718
10
79.25
20
19.178575243268718
10
79.25
20
11.107142857142849
10
83
20
11.107142857142849
10
83
20
6.6071466718401428
10
79.25
20
6.6071466718401428
10
79.25
20
-1.4642857142857268
10
83
20
-1.4642857142857268
10
83
20
-5.9642818995884328
10
79.25
20
-5.9642818995884328
10
79.25
20
-14.035714285714299
10
83
20
-14.035714285714299
10
83
20
-18.535710471017005
10
79.25
20
-18.535710471017005
10
79.25
20
-26.607142857142868
10
83
20
-26.607142857142868
10
83
20
-31.107139042445574
10
79.25
20
-31.107139042445574
10
79.25
20
-39.178571428571452
10
83
20
-39.178571428571452
10
83
20
-43.678567613874151
10
79.25
20
-43.678567613874151
10
79.25
20
-51.750000000000007
10
83
20
-51.750000000000007
10
83
20
-56.249996185302713
10
79.25
20
-56.249996185302713
10
79.249999999999986
20
-56.239999999999995
10
-60.200000000000017
20
-56.239999999999995
10
-60.200000000000017
20
-56.249996185302713
10
-63.950000000000024
20
-56.249996185302713
10
-63.950000000000024
20
-51.750000000000007
10
-60.25
20
-51.750000000000007
10
-60.25
20
-43.678567613874144
10
-63.950000000000024
20
-43.678567613874151
10
-63.950000000000024
20
-39.178571428571452
0
CIRCLE
5
101
100
AcDbEntity
8
0
100
AcDbCircle
10
-3.5079114720756022
20
-12.65000000000023
30
-1.3267165144270621e-13
40
1.3499999999999996
210
9.3941948237513247e-16
220
2.0554862331230818e-48
230
1
0
CIRCLE
5
102
100
AcDbEntity
8
0
100
AcDbCircle
10
-3.507911472075584
20
-47.650000000000233
30
-1.3100631690576847e-13
40
1.3499999999999996
210
9.5602538231610717e-16
220
0
230
1
0
CIRCLE
5
103
100
AcDbEntity
8
0
100
AcDbCircle
10
4.4920886471337003
20
-30.150000000000226
30
-1.2878587085651816e-13
40
5
210
9.4170702981598085e-16
220
1.184432174734582e-48
230
1
0
ENDSEC
0
SECTION
2
OBJECTS
0
DICTIONARY
5
C
100
AcDbDictionary
3
ACAD_GROUP
350
D
3
ACAD_MLINESTYLE
350
17
0
DICTIONARY
5
D
100
AcDbDictionary
0
DICTIONARY
5
1A
330
C
100
AcDbDictionary
0
DICTIONARY
5
17
100
AcDbDictionary
0
ENDSEC
0
EOF
