0
SECTION
2
HEADER
9
$INSUNITS
70
4
9
$ACADVER
1
AC1014
9
$HANDSEED
5
FFFF
0
ENDSEC
0
SECTION
2
TABLES
0
TABLE
2
VPORT
5
8
100
AcDbSymbolTable
0
ENDTAB
0
TABLE
2
LTYPE
5
5
100
AcDbSymbolTable
0
LTYPE
5
14
100
AcDbSymbolTableRecord
100
AcDbLinetypeTableRecord
2
BYBLOCK
70
0
0
LTYPE
5
15
100
AcDbSymbolTableRecord
100
AcDbLinetypeTableRecord
2
BYLAYER
70
0
0
ENDTAB
0
TABLE
2
LAYER
5
2
100
AcDbSymbolTable
70
2
0
LAYER
5
50
100
AcDbSymbolTableRecord
100
AcDbLayerTableRecord
2
0
70
0
6
CONTINUOUS
0
ENDTAB
0
TABLE
2
STYLE
5
3
100
AcDbSymbolTable
70
1
0
STYLE
5
11
100
AcDbSymbolTableRecord
100
AcDbTextStyleTableRecord
2
STANDARD
70
0
0
ENDTAB
0
TABLE
2
VIEW
5
6
100
AcDbSymbolTable
70
0
0
ENDTAB
0
TABLE
2
UCS
5
7
100
AcDbSymbolTable
70
0
0
ENDTAB
0
TABLE
2
APPID
5
9
100
AcDbSymbolTable
70
2
0
APPID
5
12
100
AcDbSymbolTableRecord
100
AcDbRegAppTableRecord
2
ACAD
70
0
0
ENDTAB
0
TABLE
2
DIMSTYLE
5
A
100
AcDbSymbolTable
70
1
0
ENDTAB
0
TABLE
2
BLOCK_RECORD
5
1
100
AcDbSymbolTable
70
1
0
BLOCK_RECORD
5
1F
100
AcDbSymbolTableRecord
100
AcDbBlockTableRecord
2
*MODEL_SPACE
0
BLOCK_RECORD
5
1B
100
AcDbSymbolTableRecord
100
AcDbBlockTableRecord
2
*PAPER_SPACE
0
ENDTAB
0
ENDSEC
0
SECTION
2
BLOCKS
0
BLOCK
5
20
100
AcDbEntity
100
AcDbBlockBegin
2
*MODEL_SPACE
0
ENDBLK
5
21
100
AcDbEntity
100
AcDbBlockEnd
0
BLOCK
5
1C
100
AcDbEntity
100
AcDbBlockBegin
2
*PAPER_SPACE
0
ENDBLK
5
1D
100
AcDbEntity
100
AcDbBlockEnd
0
ENDSEC
0
SECTION
2
ENTITIES
0
LINE
5
100
100
AcDbEntity
8
0
100
AcDbLine
10
-70.750993728637752
20
-149.98999990844723
30
-3.6506202505393048e-07
11
-70.750993728637752
21
-149.5000231628417
31
-3.6506202505393048e-07
0
LINE
5
101
100
AcDbEntity
8
0
100
AcDbLine
10
-70.750993728637752
20
-149.5000231628417
30
-3.6506202505393048e-07
11
60.250000000000128
21
-149.5000231628417
31
-3.6506202505393048e-07
0
LINE
5
102
100
AcDbEntity
8
0
100
AcDbLine
10
60.250000000000128
20
-149.5000231628417
30
-3.6506202505393048e-07
11
60.250000000000163
21
-144.95455512861764
31
9.1265501822590522e-08
0
LINE
5
103
100
AcDbEntity
8
0
100
AcDbLine
10
60.250000000000163
20
-144.95455512861764
30
9.1265501822590522e-08
11
63.999999046325691
21
-144.95455512861764
31
9.1265501822590522e-08
0
LINE
5
104
100
AcDbEntity
8
0
100
AcDbLine
10
63.999999046325691
20
-144.95455512861764
30
9.1265501822590522e-08
11
63.999999046325691
21
-140.40910058316311
31
-3.6506202505393048e-07
0
LINE
5
105
100
AcDbEntity
8
0
100
AcDbLine
10
63.999999046325691
20
-140.40910058316311
30
-3.6506202505393048e-07
11
60.250000000000043
21
-140.40910058316311
31
4.5632742029511064e-08
0
LINE
5
106
100
AcDbEntity
8
0
100
AcDbLine
10
60.250000000000043
20
-140.40910058316311
30
4.5632742029511064e-08
11
60.250000000000043
21
-135.9091043978604
31
4.5632742029511064e-08
0
LINE
5
107
100
AcDbEntity
8
0
100
AcDbLine
10
60.250000000000043
20
-135.9091043978604
30
4.5632742029511064e-08
11
63.999999046325691
21
-135.9091043978604
31
-3.6506202505393048e-07
0
LINE
5
108
100
AcDbEntity
8
0
100
AcDbLine
10
63.999999046325691
20
-135.9091043978604
30
-3.6506202505393048e-07
11
63.999999046325691
21
-131.31819149225402
31
-3.6506202505393048e-07
0
LINE
5
109
100
AcDbEntity
8
0
100
AcDbLine
10
63.999999046325691
20
-131.31819149225402
30
-3.6506202505393048e-07
11
60.250000000000043
21
-131.31819149225402
31
-4.5632759793079458e-08
0
LINE
5
110
100
AcDbEntity
8
0
100
AcDbLine
10
60.250000000000043
20
-131.31819149225402
30
-4.5632759793079458e-08
11
60.250000000000043
21
-126.81819530695131
31
-4.5632759793079458e-08
0
LINE
5
111
100
AcDbEntity
8
0
100
AcDbLine
10
60.250000000000043
20
-126.81819530695131
30
-4.5632759793079458e-08
11
63.999999046325691
21
-126.8181953069513
31
-3.6506202505393048e-07
0
LINE
5
112
100
AcDbEntity
8
0
100
AcDbLine
10
63.999999046325691
20
-126.8181953069513
30
-3.6506202505393048e-07
11
63.999999046325691
21
-122.22728240134494
31
-3.6506202505393048e-07
0
LINE
5
113
100
AcDbEntity
8
0
100
AcDbLine
10
63.999999046325691
20
-122.22728240134494
30
-3.6506202505393048e-07
11
60.250000000000043
21
-122.22728240134494
31
-1.3689826161566998e-07
0
LINE
5
114
100
AcDbEntity
8
0
100
AcDbLine
10
60.250000000000043
20
-122.22728240134494
30
-1.3689826161566998e-07
11
60.250000000000043
21
-117.72728621604223
31
-1.3689826161566998e-07
0
LINE
5
115
100
AcDbEntity
8
0
100
AcDbLine
10
60.250000000000043
20
-117.72728621604223
30
-1.3689826161566998e-07
11
63.999999046325691
21
-117.72728621604223
31
-3.6506202505393048e-07
0
LINE
5
116
100
AcDbEntity
8
0
100
AcDbLine
10
63.999999046325691
20
-117.72728621604223
30
-3.6506202505393048e-07
11
63.999999046325691
21
-113.13637331043583
31
-3.6506202505393048e-07
0
LINE
5
117
100
AcDbEntity
8
0
100
AcDbLine
10
63.999999046325691
20
-113.13637331043583
30
-3.6506202505393048e-07
11
60.250000000000043
21
-113.13637331043583
31
-2.281637634382605e-07
0
LINE
5
118
100
AcDbEntity
8
0
100
AcDbLine
10
60.250000000000043
20
-113.13637331043583
30
-2.281637634382605e-07
11
60.250000000000043
21
-108.63637712513312
31
-2.281637634382605e-07
0
LINE
5
119
100
AcDbEntity
8
0
100
AcDbLine
10
60.250000000000043
20
-108.63637712513312
30
-2.281637634382605e-07
11
63.999999046325691
21
-108.63637712513312
31
-3.6506202505393048e-07
0
LINE
5
120
100
AcDbEntity
8
0
100
AcDbLine
10
63.999999046325691
20
-108.63637712513312
30
-3.6506202505393048e-07
11
63.999999046325691
21
-104.04546421952674
31
-3.6506202505393048e-07
0
LINE
5
121
100
AcDbEntity
8
0
100
AcDbLine
10
63.999999046325691
20
-104.04546421952674
30
-3.6506202505393048e-07
11
60.250000000000043
21
-104.04546421952675
31
-3.1942926526085103e-07
0
LINE
5
122
100
AcDbEntity
8
0
100
AcDbLine
10
60.250000000000043
20
-104.04546421952675
30
-3.1942926526085103e-07
11
60.250000000000043
21
-99.545468034224044
31
-3.1942926526085103e-07
0
LINE
5
123
100
AcDbEntity
8
0
100
AcDbLine
10
60.250000000000043
20
-99.545468034224044
30
-3.1942926526085103e-07
11
63.999999046325691
21
-99.545468034224029
31
-3.6506202505393048e-07
0
LINE
5
124
100
AcDbEntity
8
0
100
AcDbLine
10
63.999999046325691
20
-99.545468034224029
30
-3.6506202505393048e-07
11
63.999999046325691
21
-95.000013488769497
31
-3.6506202505393048e-07
0
LINE
5
125
100
AcDbEntity
8
0
100
AcDbLine
10
63.999999046325691
20
-95.000013488769497
30
-3.6506202505393048e-07
11
60.250000000000043
21
-95.000013488769497
31
-3.6506202505393048e-07
0
LINE
5
126
100
AcDbEntity
8
0
100
AcDbLine
10
60.250000000000043
20
-95.000013488769497
30
-3.6506202505393048e-07
11
60.250000000000043
21
-90.000013488769497
31
-3.6506202505393048e-07
0
LINE
5
127
100
AcDbEntity
8
0
100
AcDbLine
10
60.250000000000043
20
-90.000013488769497
30
-3.6506202505393048e-07
11
63.999999046325691
21
-90.000013488769497
31
-3.6506202505393048e-07
0
LINE
5
128
100
AcDbEntity
8
0
100
AcDbLine
10
63.999999046325691
20
-90.000013488769497
30
-3.6506202505393048e-07
11
63.999999046325691
21
-85.000013488769497
31
-3.6506202505393048e-07
0
LINE
5
129
100
AcDbEntity
8
0
100
AcDbLine
10
63.999999046325691
20
-85.000013488769497
30
-3.6506202505393048e-07
11
60.250000000000043
21
-85.000013488769497
31
-3.6506202505393048e-07
0
LINE
5
130
100
AcDbEntity
8
0
100
AcDbLine
10
60.250000000000043
20
-85.000013488769497
30
-3.6506202505393048e-07
11
60.250000000000021
21
-80.000013488769497
31
-3.6506202505393048e-07
0
LINE
5
131
100
AcDbEntity
8
0
100
AcDbLine
10
60.250000000000021
20
-80.000013488769497
30
-3.6506202505393048e-07
11
63.999999046325669
21
-80.000013488769497
31
-3.6506202505393048e-07
0
LINE
5
132
100
AcDbEntity
8
0
100
AcDbLine
10
63.999999046325669
20
-80.000013488769497
30
-3.6506202505393048e-07
11
63.999999046325669
21
-75.000013488769497
31
-3.6506202505393048e-07
0
LINE
5
133
100
AcDbEntity
8
0
100
AcDbLine
10
63.999999046325669
20
-75.000013488769497
30
-3.6506202505393048e-07
11
60.250000000000021
21
-75.000013488769497
31
-3.6506202505393048e-07
0
LINE
5
134
100
AcDbEntity
8
0
100
AcDbLine
10
60.250000000000021
20
-75.000013488769497
30
-3.6506202505393048e-07
11
60.250000000000043
21
-70.000013488769497
31
-3.6506202505393048e-07
0
LINE
5
135
100
AcDbEntity
8
0
100
AcDbLine
10
60.250000000000043
20
-70.000013488769497
30
-3.6506202505393048e-07
11
63.999999046325691
21
-70.000013488769497
31
-3.6506202505393048e-07
0
LINE
5
136
100
AcDbEntity
8
0
100
AcDbLine
10
63.999999046325691
20
-70.000013488769497
30
-3.6506202505393048e-07
11
63.999999046325691
21
-65.000013488769497
31
-3.6506202505393048e-07
0
LINE
5
137
100
AcDbEntity
8
0
100
AcDbLine
10
63.999999046325691
20
-65.000013488769497
30
-3.6506202505393048e-07
11
60.250000000000043
21
-65.000013488769497
31
-3.6506202505393048e-07
0
LINE
5
138
100
AcDbEntity
8
0
100
AcDbLine
10
60.250000000000043
20
-65.000013488769497
30
-3.6506202505393048e-07
11
60.250000000000021
21
-60.000013488769497
31
-3.6506202505393048e-07
0
LINE
5
139
100
AcDbEntity
8
0
100
AcDbLine
10
60.250000000000021
20
-60.000013488769497
30
-3.6506202505393048e-07
11
63.999999046325669
21
-60.000013488769497
31
-3.6506202505393048e-07
0
LINE
5
140
100
AcDbEntity
8
0
100
AcDbLine
10
63.999999046325669
20
-60.000013488769497
30
-3.6506202505393048e-07
11
63.999999046325669
21
-55.000013488769497
31
-3.6506202505393048e-07
0
LINE
5
141
100
AcDbEntity
8
0
100
AcDbLine
10
63.999999046325669
20
-55.000013488769497
30
-3.6506202505393048e-07
11
60.250000000000021
21
-55.000013488769497
31
-3.6506202505393048e-07
0
LINE
5
142
100
AcDbEntity
8
0
100
AcDbLine
10
60.250000000000021
20
-55.000013488769497
30
-3.6506202505393048e-07
11
60.250000000000021
21
-50.000013488769497
31
-3.6506202505393048e-07
0
LINE
5
143
100
AcDbEntity
8
0
100
AcDbLine
10
60.250000000000021
20
-50.000013488769497
30
-3.6506202505393048e-07
11
63.999999046325669
21
-50.000013488769497
31
-3.6506202505393048e-07
0
LINE
5
144
100
AcDbEntity
8
0
100
AcDbLine
10
63.999999046325669
20
-50.000013488769497
30
-3.6506202505393048e-07
11
63.999999046325669
21
-45.000013488769497
31
-3.6506202505393048e-07
0
LINE
5
145
100
AcDbEntity
8
0
100
AcDbLine
10
63.999999046325669
20
-45.000013488769497
30
-3.6506202505393048e-07
11
60.250000000000021
21
-45.000013488769497
31
-3.6506202505393048e-07
0
LINE
5
146
100
AcDbEntity
8
0
100
AcDbLine
10
60.250000000000021
20
-45.000013488769497
30
-3.6506202505393048e-07
11
60.25
21
-40.000013488769497
31
-3.6506202505393048e-07
0
LINE
5
147
100
AcDbEntity
8
0
100
AcDbLine
10
60.25
20
-40.000013488769497
30
-3.6506202505393048e-07
11
63.999999046325655
21
-40.000013488769497
31
-3.6506202505393048e-07
0
LINE
5
148
100
AcDbEntity
8
0
100
AcDbLine
10
63.999999046325655
20
-40.000013488769497
30
-3.6506202505393048e-07
11
63.999999046325655
21
-35.000013488769497
31
-3.6506202505393048e-07
0
LINE
5
149
100
AcDbEntity
8
0
100
AcDbLine
10
63.999999046325655
20
-35.000013488769497
30
-3.6506202505393048e-07
11
60.25
21
-35.000013488769497
31
-3.6506202505393048e-07
0
LINE
5
150
100
AcDbEntity
8
0
100
AcDbLine
10
60.25
20
-35.000013488769497
30
-3.6506202505393048e-07
11
60.250000000000021
21
-30.000013488769497
31
-3.6506202505393048e-07
0
LINE
5
151
100
AcDbEntity
8
0
100
AcDbLine
10
60.250000000000021
20
-30.000013488769497
30
-3.6506202505393048e-07
11
63.999999046325669
21
-30.000013488769497
31
-3.6506202505393048e-07
0
LINE
5
152
100
AcDbEntity
8
0
100
AcDbLine
10
63.999999046325669
20
-30.000013488769497
30
-3.6506202505393048e-07
11
63.999999046325669
21
-25.000013488769497
31
-3.6506202505393048e-07
0
LINE
5
153
100
AcDbEntity
8
0
100
AcDbLine
10
63.999999046325669
20
-25.000013488769497
30
-3.6506202505393048e-07
11
60.250000000000021
21
-25.000013488769497
31
-3.6506202505393048e-07
0
LINE
5
154
100
AcDbEntity
8
0
100
AcDbLine
10
60.250000000000021
20
-25.000013488769497
30
-3.6506202505393048e-07
11
60.250000000000021
21
-20.000013488769497
31
-3.6506202505393048e-07
0
LINE
5
155
100
AcDbEntity
8
0
100
AcDbLine
10
60.250000000000021
20
-20.000013488769497
30
-3.6506202505393048e-07
11
63.999999046325669
21
-20.000013488769497
31
-3.6506202505393048e-07
0
LINE
5
156
100
AcDbEntity
8
0
100
AcDbLine
10
63.999999046325669
20
-20.000013488769497
30
-3.6506202505393048e-07
11
63.999999046325669
21
-15.000013488769497
31
-3.6506202505393048e-07
0
LINE
5
157
100
AcDbEntity
8
0
100
AcDbLine
10
63.999999046325669
20
-15.000013488769497
30
-3.6506202505393048e-07
11
60.250000000000021
21
-15.000013488769497
31
-3.6506202505393048e-07
0
LINE
5
158
100
AcDbEntity
8
0
100
AcDbLine
10
60.250000000000021
20
-15.000013488769497
30
-3.6506202505393048e-07
11
60.250000000000021
21
-10.000013488769497
31
-3.6506202505393048e-07
0
LINE
5
159
100
AcDbEntity
8
0
100
AcDbLine
10
60.250000000000021
20
-10.000013488769497
30
-3.6506202505393048e-07
11
63.999999046325669
21
-10.000013488769499
31
-3.6506202505393048e-07
0
LINE
5
160
100
AcDbEntity
8
0
100
AcDbLine
10
63.999999046325669
20
-10.000013488769499
30
-3.6506202505393048e-07
11
63.999999046325669
21
-5.0000134887694987
31
-3.6506202505393048e-07
0
LINE
5
161
100
AcDbEntity
8
0
100
AcDbLine
10
63.999999046325669
20
-5.0000134887694987
30
-3.6506202505393048e-07
11
60.250000000000021
21
-5.0000134887694978
31
-3.6506202505393048e-07
0
LINE
5
162
100
AcDbEntity
8
0
100
AcDbLine
10
60.250000000000021
20
-5.0000134887694978
30
-3.6506202505393048e-07
11
60.25
21
-1.3488769498026798e-05
31
-3.6506202505393048e-07
0
LINE
5
163
100
AcDbEntity
8
0
100
AcDbLine
10
60.25
20
-1.3488769498026798e-05
30
-3.6506202505393048e-07
11
63.999999046325655
21
-1.3488769498803732e-05
31
-3.6506202505393048e-07
0
LINE
5
164
100
AcDbEntity
8
0
100
AcDbLine
10
63.999999046325655
20
-1.3488769498803732e-05
30
-3.6506202505393048e-07
11
63.999999046325655
21
4.9999865112305013
31
-3.6506202505393048e-07
0
LINE
5
165
100
AcDbEntity
8
0
100
AcDbLine
10
63.999999046325655
20
4.9999865112305013
30
-3.6506202505393048e-07
11
60.25
21
4.9999865112305022
31
-3.6506202505393048e-07
0
LINE
5
166
100
AcDbEntity
8
0
100
AcDbLine
10
60.25
20
4.9999865112305022
30
-3.6506202505393048e-07
11
60.25
21
9.9999865112305013
31
-3.6506202505393048e-07
0
LINE
5
167
100
AcDbEntity
8
0
100
AcDbLine
10
60.25
20
9.9999865112305013
30
-3.6506202505393048e-07
11
63.999999046325655
21
9.9999865112305013
31
-3.6506202505393048e-07
0
LINE
5
168
100
AcDbEntity
8
0
100
AcDbLine
10
63.999999046325655
20
9.9999865112305013
30
-3.6506202505393048e-07
11
63.999999046325655
21
14.999986511230501
31
-3.6506202505393048e-07
0
LINE
5
169
100
AcDbEntity
8
0
100
AcDbLine
10
63.999999046325655
20
14.999986511230501
30
-3.6506202505393048e-07
11
60.25
21
14.999986511230503
31
-3.6506202505393048e-07
0
LINE
5
170
100
AcDbEntity
8
0
100
AcDbLine
10
60.25
20
14.999986511230503
30
-3.6506202505393048e-07
11
60.25
21
19.999986511230503
31
-3.6506202505393048e-07
0
LINE
5
171
100
AcDbEntity
8
0
100
AcDbLine
10
60.25
20
19.999986511230503
30
-3.6506202505393048e-07
11
63.999999046325655
21
19.9999865112305
31
-3.6506202505393048e-07
0
LINE
5
172
100
AcDbEntity
8
0
100
AcDbLine
10
63.999999046325655
20
19.9999865112305
30
-3.6506202505393048e-07
11
63.999999046325655
21
24.999986511230503
31
-3.6506202505393048e-07
0
LINE
5
173
100
AcDbEntity
8
0
100
AcDbLine
10
63.999999046325655
20
24.999986511230503
30
-3.6506202505393048e-07
11
60.25
21
24.999986511230503
31
-3.6506202505393048e-07
0
LINE
5
174
100
AcDbEntity
8
0
100
AcDbLine
10
60.25
20
24.999986511230503
30
-3.6506202505393048e-07
11
60.25
21
29.999986511230503
31
-3.6506202505393048e-07
0
LINE
5
175
100
AcDbEntity
8
0
100
AcDbLine
10
60.25
20
29.999986511230503
30
-3.6506202505393048e-07
11
63.999999046325655
21
29.999986511230503
31
-3.6506202505393048e-07
0
LINE
5
176
100
AcDbEntity
8
0
100
AcDbLine
10
63.999999046325655
20
29.999986511230503
30
-3.6506202505393048e-07
11
63.999999046325655
21
34.999986511230503
31
-3.6506202505393048e-07
0
LINE
5
177
100
AcDbEntity
8
0
100
AcDbLine
10
63.999999046325655
20
34.999986511230503
30
-3.6506202505393048e-07
11
60.25
21
34.999986511230503
31
-3.6506202505393048e-07
0
LINE
5
178
100
AcDbEntity
8
0
100
AcDbLine
10
60.25
20
34.999986511230503
30
-3.6506202505393048e-07
11
60.249998641967686
21
39.999987327575759
31
-3.6506202505393048e-07
0
LINE
5
179
100
AcDbEntity
8
0
100
AcDbLine
10
60.249998641967686
20
39.999987327575759
30
-3.6506202505393048e-07
11
-79.249997543335041
21
39.999987327575752
31
-3.6506202505393048e-07
0
LINE
5
180
100
AcDbEntity
8
0
100
AcDbLine
10
-79.249997543335041
20
39.999987327575752
30
-3.6506202505393048e-07
11
-79.249997543335041
21
34.999986511230503
31
-3.6506202505393048e-07
0
LINE
5
181
100
AcDbEntity
8
0
100
AcDbLine
10
-79.249997543335041
20
34.999986511230503
30
-3.6506202505393048e-07
11
-83.000997543335032
21
34.999986511230503
31
-3.6506202505393048e-07
0
LINE
5
182
100
AcDbEntity
8
0
100
AcDbLine
10
-83.000997543335032
20
34.999986511230503
30
-3.6506202505393048e-07
11
-83.000997543335032
21
29.999986511230503
31
-3.6506202505393048e-07
0
LINE
5
183
100
AcDbEntity
8
0
100
AcDbLine
10
-83.000997543335032
20
29.999986511230503
30
-3.6506202505393048e-07
11
-79.249997543335041
21
29.999986511230503
31
-3.6506202505393048e-07
0
LINE
5
184
100
AcDbEntity
8
0
100
AcDbLine
10
-79.249997543335041
20
29.999986511230503
30
-3.6506202505393048e-07
11
-79.249997543335041
21
24.999986511230503
31
-3.6506202505393048e-07
0
LINE
5
185
100
AcDbEntity
8
0
100
AcDbLine
10
-79.249997543335041
20
24.999986511230503
30
-3.6506202505393048e-07
11
-83.000997543335032
21
24.999986511230503
31
-3.6506202505393048e-07
0
LINE
5
186
100
AcDbEntity
8
0
100
AcDbLine
10
-83.000997543335032
20
24.999986511230503
30
-3.6506202505393048e-07
11
-83.000997543335032
21
19.999986511230503
31
-3.6506202505393048e-07
0
LINE
5
187
100
AcDbEntity
8
0
100
AcDbLine
10
-83.000997543335032
20
19.999986511230503
30
-3.6506202505393048e-07
11
-79.249997543335041
21
19.999986511230503
31
-3.6506202505393048e-07
0
LINE
5
188
100
AcDbEntity
8
0
100
AcDbLine
10
-79.249997543335041
20
19.999986511230503
30
-3.6506202505393048e-07
11
-79.249997543335041
21
14.999986511230503
31
-3.6506202505393048e-07
0
LINE
5
189
100
AcDbEntity
8
0
100
AcDbLine
10
-79.249997543335041
20
14.999986511230503
30
-3.6506202505393048e-07
11
-83.000997543335032
21
14.999986511230503
31
-3.6506202505393048e-07
0
LINE
5
190
100
AcDbEntity
8
0
100
AcDbLine
10
-83.000997543335032
20
14.999986511230503
30
-3.6506202505393048e-07
11
-83.000997543335032
21
9.9999865112305031
31
-3.6506202505393048e-07
0
LINE
5
191
100
AcDbEntity
8
0
100
AcDbLine
10
-83.000997543335032
20
9.9999865112305031
30
-3.6506202505393048e-07
11
-79.249997543335041
21
9.9999865112305049
31
-3.6506202505393048e-07
0
LINE
5
192
100
AcDbEntity
8
0
100
AcDbLine
10
-79.249997543335041
20
9.9999865112305049
30
-3.6506202505393048e-07
11
-79.249997543335041
21
4.999986511230504
31
-3.6506202505393048e-07
0
LINE
5
193
100
AcDbEntity
8
0
100
AcDbLine
10
-79.249997543335041
20
4.999986511230504
30
-3.6506202505393048e-07
11
-83.000997543335032
21
4.9999865112305031
31
-3.6506202505393048e-07
0
LINE
5
194
100
AcDbEntity
8
0
100
AcDbLine
10
-83.000997543335032
20
4.9999865112305031
30
-3.6506202505393048e-07
11
-83.000997543335032
21
-1.3488769496916575e-05
31
-3.6506202505393048e-07
0
LINE
5
195
100
AcDbEntity
8
0
100
AcDbLine
10
-83.000997543335032
20
-1.3488769496916575e-05
30
-3.6506202505393048e-07
11
-79.249997543335041
21
-1.3488769496083686e-05
31
-3.6506202505393048e-07
0
LINE
5
196
100
AcDbEntity
8
0
100
AcDbLine
10
-79.249997543335041
20
-1.3488769496083686e-05
30
-3.6506202505393048e-07
11
-79.249997543335013
21
-5.000013488769496
31
-3.6506202505393048e-07
0
LINE
5
197
100
AcDbEntity
8
0
100
AcDbLine
10
-79.249997543335013
20
-5.000013488769496
30
-3.6506202505393048e-07
11
-83.000997543335018
21
-5.0000134887694969
31
-3.6506202505393048e-07
0
LINE
5
198
100
AcDbEntity
8
0
100
AcDbLine
10
-83.000997543335018
20
-5.0000134887694969
30
-3.6506202505393048e-07
11
-83.000997543335018
21
-10.000013488769497
31
-3.6506202505393048e-07
0
LINE
5
199
100
AcDbEntity
8
0
100
AcDbLine
10
-83.000997543335018
20
-10.000013488769497
30
-3.6506202505393048e-07
11
-79.249997543335013
21
-10.000013488769497
31
-3.6506202505393048e-07
0
LINE
5
200
100
AcDbEntity
8
0
100
AcDbLine
10
-79.249997543335013
20
-10.000013488769497
30
-3.6506202505393048e-07
11
-79.249997543335013
21
-15.000013488769497
31
-3.6506202505393048e-07
0
LINE
5
201
100
AcDbEntity
8
0
100
AcDbLine
10
-79.249997543335013
20
-15.000013488769497
30
-3.6506202505393048e-07
11
-83.000997543335018
21
-15.000013488769497
31
-3.6506202505393048e-07
0
LINE
5
202
100
AcDbEntity
8
0
100
AcDbLine
10
-83.000997543335018
20
-15.000013488769497
30
-3.6506202505393048e-07
11
-83.000997543335018
21
-20.000013488769497
31
-3.6506202505393048e-07
0
LINE
5
203
100
AcDbEntity
8
0
100
AcDbLine
10
-83.000997543335018
20
-20.000013488769497
30
-3.6506202505393048e-07
11
-79.249997543335013
21
-20.000013488769497
31
-3.6506202505393048e-07
0
LINE
5
204
100
AcDbEntity
8
0
100
AcDbLine
10
-79.249997543335013
20
-20.000013488769497
30
-3.6506202505393048e-07
11
-79.249997543335013
21
-25.000013488769497
31
-3.6506202505393048e-07
0
LINE
5
205
100
AcDbEntity
8
0
100
AcDbLine
10
-79.249997543335013
20
-25.000013488769497
30
-3.6506202505393048e-07
11
-83.000997543335018
21
-25.000013488769497
31
-3.6506202505393048e-07
0
LINE
5
206
100
AcDbEntity
8
0
100
AcDbLine
10
-83.000997543335018
20
-25.000013488769497
30
-3.6506202505393048e-07
11
-83.000997543335018
21
-30.000013488769497
31
-3.6506202505393048e-07
0
LINE
5
207
100
AcDbEntity
8
0
100
AcDbLine
10
-83.000997543335018
20
-30.000013488769497
30
-3.6506202505393048e-07
11
-79.249997543335013
21
-30.000013488769497
31
-3.6506202505393048e-07
0
LINE
5
208
100
AcDbEntity
8
0
100
AcDbLine
10
-79.249997543335013
20
-30.000013488769497
30
-3.6506202505393048e-07
11
-79.249997543335041
21
-35.000013488769497
31
-3.6506202505393048e-07
0
LINE
5
209
100
AcDbEntity
8
0
100
AcDbLine
10
-79.249997543335041
20
-35.000013488769497
30
-3.6506202505393048e-07
11
-83.000997543335032
21
-35.000013488769497
31
-3.6506202505393048e-07
0
LINE
5
210
100
AcDbEntity
8
0
100
AcDbLine
10
-83.000997543335032
20
-35.000013488769497
30
-3.6506202505393048e-07
11
-83.000997543335032
21
-40.000013488769497
31
-3.6506202505393048e-07
0
LINE
5
211
100
AcDbEntity
8
0
100
AcDbLine
10
-83.000997543335032
20
-40.000013488769497
30
-3.6506202505393048e-07
11
-79.249997543335041
21
-40.000013488769497
31
-3.6506202505393048e-07
0
LINE
5
212
100
AcDbEntity
8
0
100
AcDbLine
10
-79.249997543335041
20
-40.000013488769497
30
-3.6506202505393048e-07
11
-79.249997543335013
21
-45.000013488769497
31
-3.6506202505393048e-07
0
LINE
5
213
100
AcDbEntity
8
0
100
AcDbLine
10
-79.249997543335013
20
-45.000013488769497
30
-3.6506202505393048e-07
11
-83.000997543335018
21
-45.000013488769497
31
-3.6506202505393048e-07
0
LINE
5
214
100
AcDbEntity
8
0
100
AcDbLine
10
-83.000997543335018
20
-45.000013488769497
30
-3.6506202505393048e-07
11
-83.000997543335018
21
-50.000013488769497
31
-3.6506202505393048e-07
0
LINE
5
215
100
AcDbEntity
8
0
100
AcDbLine
10
-83.000997543335018
20
-50.000013488769497
30
-3.6506202505393048e-07
11
-79.249997543335013
21
-50.000013488769497
31
-3.6506202505393048e-07
0
LINE
5
216
100
AcDbEntity
8
0
100
AcDbLine
10
-79.249997543335013
20
-50.000013488769497
30
-3.6506202505393048e-07
11
-79.249997543335013
21
-55.000013488769497
31
-3.6506202505393048e-07
0
LINE
5
217
100
AcDbEntity
8
0
100
AcDbLine
10
-79.249997543335013
20
-55.000013488769497
30
-3.6506202505393048e-07
11
-83.000997543335018
21
-55.000013488769497
31
-3.6506202505393048e-07
0
LINE
5
218
100
AcDbEntity
8
0
100
AcDbLine
10
-83.000997543335018
20
-55.000013488769497
30
-3.6506202505393048e-07
11
-83.000997543335018
21
-60.000013488769497
31
-3.6506202505393048e-07
0
LINE
5
219
100
AcDbEntity
8
0
100
AcDbLine
10
-83.000997543335018
20
-60.000013488769497
30
-3.6506202505393048e-07
11
-79.249997543335013
21
-60.000013488769497
31
-3.6506202505393048e-07
0
LINE
5
220
100
AcDbEntity
8
0
100
AcDbLine
10
-79.249997543335013
20
-60.000013488769497
30
-3.6506202505393048e-07
11
-79.249997543334999
21
-65.000013488769497
31
-3.6506202505393048e-07
0
LINE
5
221
100
AcDbEntity
8
0
100
AcDbLine
10
-79.249997543334999
20
-65.000013488769497
30
-3.6506202505393048e-07
11
-83.000997543335004
21
-65.000013488769497
31
-3.6506202505393048e-07
0
LINE
5
222
100
AcDbEntity
8
0
100
AcDbLine
10
-83.000997543335004
20
-65.000013488769497
30
-3.6506202505393048e-07
11
-83.000997543335004
21
-70.000013488769497
31
-3.6506202505393048e-07
0
LINE
5
223
100
AcDbEntity
8
0
100
AcDbLine
10
-83.000997543335004
20
-70.000013488769497
30
-3.6506202505393048e-07
11
-79.249997543334999
21
-70.000013488769497
31
-3.6506202505393048e-07
0
LINE
5
224
100
AcDbEntity
8
0
100
AcDbLine
10
-79.249997543334999
20
-70.000013488769497
30
-3.6506202505393048e-07
11
-79.249997543335013
21
-75.000013488769497
31
-3.6506202505393048e-07
0
LINE
5
225
100
AcDbEntity
8
0
100
AcDbLine
10
-79.249997543335013
20
-75.000013488769497
30
-3.6506202505393048e-07
11
-83.000997543335018
21
-75.000013488769497
31
-3.6506202505393048e-07
0
LINE
5
226
100
AcDbEntity
8
0
100
AcDbLine
10
-83.000997543335018
20
-75.000013488769497
30
-3.6506202505393048e-07
11
-83.000997543335018
21
-80.000013488769497
31
-3.6506202505393048e-07
0
LINE
5
227
100
AcDbEntity
8
0
100
AcDbLine
10
-83.000997543335018
20
-80.000013488769497
30
-3.6506202505393048e-07
11
-79.249997543335013
21
-80.000013488769497
31
-3.6506202505393048e-07
0
LINE
5
228
100
AcDbEntity
8
0
100
AcDbLine
10
-79.249997543335013
20
-80.000013488769497
30
-3.6506202505393048e-07
11
-79.249997543334999
21
-85.000013488769497
31
-3.6506202505393048e-07
0
LINE
5
229
100
AcDbEntity
8
0
100
AcDbLine
10
-79.249997543334999
20
-85.000013488769497
30
-3.6506202505393048e-07
11
-83.000997543335004
21
-85.000013488769497
31
-3.6506202505393048e-07
0
LINE
5
230
100
AcDbEntity
8
0
100
AcDbLine
10
-83.000997543335004
20
-85.000013488769497
30
-3.6506202505393048e-07
11
-83.000997543335004
21
-90.000013488769497
31
-3.6506202505393048e-07
0
LINE
5
231
100
AcDbEntity
8
0
100
AcDbLine
10
-83.000997543335004
20
-90.000013488769497
30
-3.6506202505393048e-07
11
-79.249997543334999
21
-90.000013488769497
31
-3.6506202505393048e-07
0
LINE
5
232
100
AcDbEntity
8
0
100
AcDbLine
10
-79.249997543334999
20
-90.000013488769497
30
-3.6506202505393048e-07
11
-79.249997543334999
21
-95.000013488769497
31
-3.6506202505393048e-07
0
LINE
5
233
100
AcDbEntity
8
0
100
AcDbLine
10
-79.249997543334999
20
-95.000013488769497
30
-3.6506202505393048e-07
11
-83.000997543335004
21
-95.000013488769497
31
-3.6506202505393048e-07
0
LINE
5
234
100
AcDbEntity
8
0
100
AcDbLine
10
-83.000997543335004
20
-95.000013488769497
30
-3.6506202505393048e-07
11
-83.000997543335004
21
-99.500009674072203
31
-3.6506202505393048e-07
0
LINE
5
235
100
AcDbEntity
8
0
100
AcDbLine
10
-83.000997543335004
20
-99.500009674072203
30
-3.6506202505393048e-07
11
-79.250997543335004
21
-99.500009674072203
31
-3.6506202505393048e-07
0
LINE
5
236
100
AcDbEntity
8
0
100
AcDbLine
10
-79.250997543335004
20
-99.500009674072203
30
-3.6506202505393048e-07
11
-79.250997543335032
21
-99.545468034224044
31
-3.1942926526085103e-07
0
LINE
5
237
100
AcDbEntity
8
0
100
AcDbLine
10
-79.250997543335032
20
-99.545468034224044
30
-3.1942926526085103e-07
11
-79.249997543334999
21
-99.545468034224044
31
-3.1942926526085103e-07
0
LINE
5
238
100
AcDbEntity
8
0
100
AcDbLine
10
-79.249997543334999
20
-99.545468034224044
30
-3.1942926526085103e-07
11
-79.249997543334999
21
-104.04546421952675
31
-3.1942926526085103e-07
0
LINE
5
239
100
AcDbEntity
8
0
100
AcDbLine
10
-79.249997543334999
20
-104.04546421952675
30
-3.1942926526085103e-07
11
-79.250997543335032
21
-104.04546421952675
31
-3.1942926526085103e-07
0
LINE
5
240
100
AcDbEntity
8
0
100
AcDbLine
10
-79.250997543335032
20
-104.04546421952675
30
-3.1942926526085103e-07
11
-79.250997543335004
21
-104.09092257967858
31
-2.7379652323133996e-07
0
LINE
5
241
100
AcDbEntity
8
0
100
AcDbLine
10
-79.250997543335004
20
-104.09092257967858
30
-2.7379652323133996e-07
11
-83.000997543335004
21
-104.09092257967858
31
-2.7379652323133996e-07
0
LINE
5
242
100
AcDbEntity
8
0
100
AcDbLine
10
-83.000997543335004
20
-104.09092257967858
30
-2.7379652323133996e-07
11
-83.000997543335004
21
-108.59091876498128
31
-2.7379652323133996e-07
0
LINE
5
243
100
AcDbEntity
8
0
100
AcDbLine
10
-83.000997543335004
20
-108.59091876498128
30
-2.7379652323133996e-07
11
-79.250997543335004
21
-108.59091876498128
31
-2.7379652323133996e-07
0
LINE
5
244
100
AcDbEntity
8
0
100
AcDbLine
10
-79.250997543335004
20
-108.59091876498128
30
-2.7379652323133996e-07
11
-79.250997543335032
21
-108.63637712513312
31
-2.281637634382605e-07
0
LINE
5
245
100
AcDbEntity
8
0
100
AcDbLine
10
-79.250997543335032
20
-108.63637712513312
30
-2.281637634382605e-07
11
-79.249997543334999
21
-108.63637712513312
31
-2.281637634382605e-07
0
LINE
5
246
100
AcDbEntity
8
0
100
AcDbLine
10
-79.249997543334999
20
-108.63637712513312
30
-2.281637634382605e-07
11
-79.249997543334999
21
-113.13637331043583
31
-2.281637634382605e-07
0
LINE
5
247
100
AcDbEntity
8
0
100
AcDbLine
10
-79.249997543334999
20
-113.13637331043583
30
-2.281637634382605e-07
11
-79.250997543335032
21
-113.13637331043583
31
-2.281637634382605e-07
0
LINE
5
248
100
AcDbEntity
8
0
100
AcDbLine
10
-79.250997543335032
20
-113.13637331043583
30
-2.281637634382605e-07
11
-79.250997543335004
21
-113.18183167058768
31
-1.8253100364518104e-07
0
LINE
5
249
100
AcDbEntity
8
0
100
AcDbLine
10
-79.250997543335004
20
-113.18183167058768
30
-1.8253100364518104e-07
11
-83.000997543335004
21
-113.18183167058768
31
-1.8253100364518104e-07
0
LINE
5
250
100
AcDbEntity
8
0
100
AcDbLine
10
-83.000997543335004
20
-113.18183167058768
30
-1.8253100364518104e-07
11
-83.000997543335004
21
-117.68182785589039
31
-1.8253100364518104e-07
0
LINE
5
251
100
AcDbEntity
8
0
100
AcDbLine
10
-83.000997543335004
20
-117.68182785589039
30
-1.8253100364518104e-07
11
-79.250997543335004
21
-117.68182785589039
31
-1.8253100364518104e-07
0
LINE
5
252
100
AcDbEntity
8
0
100
AcDbLine
10
-79.250997543335004
20
-117.68182785589039
30
-1.8253100364518104e-07
11
-79.250997543335032
21
-117.72728621604223
31
-1.3689826161566998e-07
0
LINE
5
253
100
AcDbEntity
8
0
100
AcDbLine
10
-79.250997543335032
20
-117.72728621604223
30
-1.3689826161566998e-07
11
-79.249997543334999
21
-117.72728621604223
31
-1.3689826161566998e-07
0
LINE
5
254
100
AcDbEntity
8
0
100
AcDbLine
10
-79.249997543334999
20
-117.72728621604223
30
-1.3689826161566998e-07
11
-79.249997543334999
21
-122.22728240134494
31
-1.3689826161566998e-07
0
LINE
5
255
100
AcDbEntity
8
0
100
AcDbLine
10
-79.249997543334999
20
-122.22728240134494
30
-1.3689826161566998e-07
11
-79.250997543335032
21
-122.22728240134494
31
-1.3689826161566998e-07
0
LINE
5
256
100
AcDbEntity
8
0
100
AcDbLine
10
-79.250997543335032
20
-122.22728240134494
30
-1.3689826161566998e-07
11
-79.250997543335004
21
-122.27274076149676
31
-9.1265501822590522e-08
0
LINE
5
257
100
AcDbEntity
8
0
100
AcDbLine
10
-79.250997543335004
20
-122.27274076149676
30
-9.1265501822590522e-08
11
-83.000997543335004
21
-122.27274076149676
31
-9.1265501822590522e-08
0
LINE
5
258
100
AcDbEntity
8
0
100
AcDbLine
10
-83.000997543335004
20
-122.27274076149676
30
-9.1265501822590522e-08
11
-83.000997543335004
21
-126.77273694679947
31
-9.1265501822590522e-08
0
LINE
5
259
100
AcDbEntity
8
0
100
AcDbLine
10
-83.000997543335004
20
-126.77273694679947
30
-9.1265501822590522e-08
11
-79.250997543335004
21
-126.77273694679947
31
-9.1265501822590522e-08
0
LINE
5
260
100
AcDbEntity
8
0
100
AcDbLine
10
-79.250997543335004
20
-126.77273694679947
30
-9.1265501822590522e-08
11
-79.250997543335032
21
-126.81819530695131
31
-4.5632759793079458e-08
0
LINE
5
261
100
AcDbEntity
8
0
100
AcDbLine
10
-79.250997543335032
20
-126.81819530695131
30
-4.5632759793079458e-08
11
-79.249997543334999
21
-126.81819530695131
31
-4.5632759793079458e-08
0
LINE
5
262
100
AcDbEntity
8
0
100
AcDbLine
10
-79.249997543334999
20
-126.81819530695131
30
-4.5632759793079458e-08
11
-79.249997543334999
21
-131.31819149225402
31
-4.5632759793079458e-08
0
LINE
5
263
100
AcDbEntity
8
0
100
AcDbLine
10
-79.249997543334999
20
-131.31819149225402
30
-4.5632759793079458e-08
11
-79.250997543335032
21
-131.31819149225402
31
-4.5632759793079458e-08
0
LINE
5
264
100
AcDbEntity
8
0
100
AcDbLine
10
-79.250997543335032
20
-131.31819149225402
30
-4.5632759793079458e-08
11
-79.250997543335004
21
-131.36364985240587
31
0
0
LINE
5
265
100
AcDbEntity
8
0
100
AcDbLine
10
-79.250997543335004
20
-131.36364985240587
30
0
11
-83.000997543335004
21
-131.36364985240587
31
0
0
LINE
5
266
100
AcDbEntity
8
0
100
AcDbLine
10
-83.000997543335004
20
-131.36364985240587
30
0
11
-83.000997543335004
21
-135.86364603770858
31
0
0
LINE
5
267
100
AcDbEntity
8
0
100
AcDbLine
10
-83.000997543335004
20
-135.86364603770858
30
0
11
-79.250997543335004
21
-135.86364603770858
31
0
0
LINE
5
268
100
AcDbEntity
8
0
100
AcDbLine
10
-79.250997543335004
20
-135.86364603770858
30
0
11
-79.250997543335032
21
-135.9091043978604
31
4.5632742029511064e-08
0
LINE
5
269
100
AcDbEntity
8
0
100
AcDbLine
10
-79.250997543335032
20
-135.9091043978604
30
4.5632742029511064e-08
11
-79.249997543334999
21
-135.9091043978604
31
4.5632742029511064e-08
0
LINE
5
270
100
AcDbEntity
8
0
100
AcDbLine
10
-79.249997543334999
20
-135.9091043978604
30
4.5632742029511064e-08
11
-79.249997543334999
21
-140.40910058316311
31
4.5632742029511064e-08
0
LINE
5
271
100
AcDbEntity
8
0
100
AcDbLine
10
-79.249997543334999
20
-140.40910058316311
30
4.5632742029511064e-08
11
-79.250997543335032
21
-140.40910058316311
31
4.5632742029511064e-08
0
LINE
5
272
100
AcDbEntity
8
0
100
AcDbLine
10
-79.250997543335032
20
-140.40910058316311
30
4.5632742029511064e-08
11
-79.250997543335004
21
-140.45455894331494
31
9.1265501822590522e-08
0
LINE
5
273
100
AcDbEntity
8
0
100
AcDbLine
10
-79.250997543335004
20
-140.45455894331494
30
9.1265501822590522e-08
11
-83.000997543335004
21
-140.45455894331494
31
9.1265501822590522e-08
0
LINE
5
274
100
AcDbEntity
8
0
100
AcDbLine
10
-83.000997543335004
20
-140.45455894331494
30
9.1265501822590522e-08
11
-83.000997543335004
21
-144.95455512861764
31
9.1265501822590522e-08
0
LINE
5
275
100
AcDbEntity
8
0
100
AcDbLine
10
-83.000997543335004
20
-144.95455512861764
30
9.1265501822590522e-08
11
-79.250997543335004
21
-144.95455512861764
31
9.1265501822590522e-08
0
LINE
5
276
100
AcDbEntity
8
0
100
AcDbLine
10
-79.250997543335004
20
-144.95455512861764
30
9.1265501822590522e-08
11
-79.250997543335032
21
-145.0000134887695
31
1.3689826161566998e-07
0
LINE
5
277
100
AcDbEntity
8
0
100
AcDbLine
10
-79.250997543335032
20
-145.0000134887695
30
1.3689826161566998e-07
11
-79.249997543334999
21
-145.0000134887695
31
1.3689826161566998e-07
0
LINE
5
278
100
AcDbEntity
8
0
100
AcDbLine
10
-79.249997543334999
20
-145.0000134887695
30
1.3689826161566998e-07
11
-79.249997543334999
21
-149.5000096740722
31
1.3689826161566998e-07
0
LINE
5
279
100
AcDbEntity
8
0
100
AcDbLine
10
-79.249997543334999
20
-149.5000096740722
30
1.3689826161566998e-07
11
-79.250997543335032
21
-149.5000096740722
31
1.3689826161566998e-07
0
LINE
5
280
100
AcDbEntity
8
0
100
AcDbLine
10
-79.250997543335032
20
-149.5000096740722
30
1.3689826161566998e-07
11
-79.250997543335032
21
-149.98999990844723
31
-3.6506202505393048e-07
0
LINE
5
281
100
AcDbEntity
8
0
100
AcDbLine
10
-79.250997543335032
20
-149.98999990844723
30
-3.6506202505393048e-07
11
-70.750993728637752
21
-149.98999990844723
31
-3.6506202505393048e-07
0
ENDSEC
0
SECTION
2
OBJECTS
0
DICTIONARY
5
C
100
AcDbDictionary
3
ACAD_GROUP
350
D
3
ACAD_MLINESTYLE
350
17
0
DICTIONARY
5
D
100
AcDbDictionary
0
DICTIONARY
5
1A
330
C
100
AcDbDictionary
0
DICTIONARY
5
17
100
AcDbDictionary
0
ENDSEC
0
EOF
