0
SECTION
2
HEADER
9
$INSUNITS
70
4
9
$ACADVER
1
AC1014
9
$HANDSEED
5
FFFF
0
ENDSEC
0
SECTION
2
TABLES
0
TABLE
2
VPORT
5
8
100
AcDbSymbolTable
0
ENDTAB
0
TABLE
2
LTYPE
5
5
100
AcDbSymbolTable
0
LTYPE
5
14
100
AcDbSymbolTableRecord
100
AcDbLinetypeTableRecord
2
BYBLOCK
70
0
0
LTYPE
5
15
100
AcDbSymbolTableRecord
100
AcDbLinetypeTableRecord
2
BYLAYER
70
0
0
ENDTAB
0
TABLE
2
LAYER
5
2
100
AcDbSymbolTable
70
2
0
LAYER
5
50
100
AcDbSymbolTableRecord
100
AcDbLayerTableRecord
2
0
70
0
6
CONTINUOUS
0
ENDTAB
0
TABLE
2
STYLE
5
3
100
AcDbSymbolTable
70
1
0
STYLE
5
11
100
AcDbSymbolTableRecord
100
AcDbTextStyleTableRecord
2
STANDARD
70
0
0
ENDTAB
0
TABLE
2
VIEW
5
6
100
AcDbSymbolTable
70
0
0
ENDTAB
0
TABLE
2
UCS
5
7
100
AcDbSymbolTable
70
0
0
ENDTAB
0
TABLE
2
APPID
5
9
100
AcDbSymbolTable
70
2
0
APPID
5
12
100
AcDbSymbolTableRecord
100
AcDbRegAppTableRecord
2
ACAD
70
0
0
ENDTAB
0
TABLE
2
DIMSTYLE
5
A
100
AcDbSymbolTable
70
1
0
ENDTAB
0
TABLE
2
BLOCK_RECORD
5
1
100
AcDbSymbolTable
70
1
0
BLOCK_RECORD
5
1F
100
AcDbSymbolTableRecord
100
AcDbBlockTableRecord
2
*MODEL_SPACE
0
BLOCK_RECORD
5
1B
100
AcDbSymbolTableRecord
100
AcDbBlockTableRecord
2
*PAPER_SPACE
0
ENDTAB
0
ENDSEC
0
SECTION
2
BLOCKS
0
BLOCK
5
20
100
AcDbEntity
100
AcDbBlockBegin
2
*MODEL_SPACE
0
ENDBLK
5
21
100
AcDbEntity
100
AcDbBlockEnd
0
BLOCK
5
1C
100
AcDbEntity
100
AcDbBlockBegin
2
*PAPER_SPACE
0
ENDBLK
5
1D
100
AcDbEntity
100
AcDbBlockEnd
0
ENDSEC
0
SECTION
2
ENTITIES
0
LWPOLYLINE
5
100
100
AcDbEntity
8
0
100
AcDbPolyline
90
4
70
1
43
0.0
10
62.134004475151563
20
-48.041171450728214
10
62.134004475151563
20
-13.84117145072821
10
27.934004475151568
20
-13.841171450728211
10
27.934004475151568
20
-48.041171450728214
0
LINE
5
101
100
AcDbEntity
8
0
100
AcDbLine
10
79.248999999999953
20
-145
30
0
11
79.248999999999953
21
-140
31
0
0
LINE
5
102
100
AcDbEntity
8
0
100
AcDbLine
10
79.248999999999953
20
-140
30
0
11
82.999999999999957
21
-140
31
0
0
LINE
5
103
100
AcDbEntity
8
0
100
AcDbLine
10
82.999999999999957
20
-140
30
0
11
82.999999999999957
21
-135
31
0
0
LINE
5
104
100
AcDbEntity
8
0
100
AcDbLine
10
82.999999999999957
20
-135
30
0
11
79.248999999999953
21
-135
31
0
0
LINE
5
105
100
AcDbEntity
8
0
100
AcDbLine
10
79.248999999999953
20
-135
30
0
11
79.248999999999953
21
-130
31
0
0
LINE
5
106
100
AcDbEntity
8
0
100
AcDbLine
10
79.248999999999953
20
-130
30
0
11
82.999999999999957
21
-130
31
0
0
LINE
5
107
100
AcDbEntity
8
0
100
AcDbLine
10
82.999999999999957
20
-130
30
0
11
82.999999999999957
21
-125
31
0
0
LINE
5
108
100
AcDbEntity
8
0
100
AcDbLine
10
82.999999999999957
20
-125
30
0
11
79.248999999999953
21
-125
31
0
0
LINE
5
109
100
AcDbEntity
8
0
100
AcDbLine
10
79.248999999999953
20
-125
30
0
11
79.248999999999953
21
-120
31
0
0
LINE
5
110
100
AcDbEntity
8
0
100
AcDbLine
10
79.248999999999953
20
-120
30
0
11
82.999999999999957
21
-120
31
0
0
LINE
5
111
100
AcDbEntity
8
0
100
AcDbLine
10
82.999999999999957
20
-120
30
0
11
82.999999999999957
21
-115
31
0
0
LINE
5
112
100
AcDbEntity
8
0
100
AcDbLine
10
82.999999999999957
20
-115
30
0
11
79.248999999999953
21
-115
31
0
0
LINE
5
113
100
AcDbEntity
8
0
100
AcDbLine
10
79.248999999999953
20
-115
30
0
11
79.248999999999953
21
-110
31
0
0
LINE
5
114
100
AcDbEntity
8
0
100
AcDbLine
10
79.248999999999953
20
-110
30
0
11
82.999999999999957
21
-110
31
0
0
LINE
5
115
100
AcDbEntity
8
0
100
AcDbLine
10
82.999999999999957
20
-110
30
0
11
82.999999999999957
21
-105
31
0
0
LINE
5
116
100
AcDbEntity
8
0
100
AcDbLine
10
82.999999999999957
20
-105
30
0
11
79.248999999999953
21
-105
31
0
0
LINE
5
117
100
AcDbEntity
8
0
100
AcDbLine
10
79.248999999999953
20
-105
30
0
11
79.248999999999953
21
-100
31
0
0
LINE
5
118
100
AcDbEntity
8
0
100
AcDbLine
10
79.248999999999953
20
-100
30
0
11
82.999999999999957
21
-100
31
0
0
LINE
5
119
100
AcDbEntity
8
0
100
AcDbLine
10
82.999999999999957
20
-100
30
0
11
82.999999999999957
21
-95
31
0
0
LINE
5
120
100
AcDbEntity
8
0
100
AcDbLine
10
82.999999999999957
20
-95
30
0
11
79.248999999999953
21
-95
31
0
0
LINE
5
121
100
AcDbEntity
8
0
100
AcDbLine
10
79.248999999999953
20
-95
30
0
11
79.248999999999953
21
-90
31
0
0
LINE
5
122
100
AcDbEntity
8
0
100
AcDbLine
10
79.248999999999953
20
-90
30
0
11
82.999999999999957
21
-90
31
0
0
LINE
5
123
100
AcDbEntity
8
0
100
AcDbLine
10
82.999999999999957
20
-90
30
0
11
82.999999999999957
21
-85
31
0
0
LINE
5
124
100
AcDbEntity
8
0
100
AcDbLine
10
82.999999999999957
20
-85
30
0
11
79.248999999999953
21
-85
31
0
0
LINE
5
125
100
AcDbEntity
8
0
100
AcDbLine
10
79.248999999999953
20
-85
30
0
11
79.248999999999953
21
-79.999999999999986
31
0
0
LINE
5
126
100
AcDbEntity
8
0
100
AcDbLine
10
79.248999999999953
20
-79.999999999999986
30
0
11
82.999999999999957
21
-79.999999999999986
31
0
0
LINE
5
127
100
AcDbEntity
8
0
100
AcDbLine
10
82.999999999999957
20
-79.999999999999986
30
0
11
82.999999999999957
21
-74.999999999999986
31
0
0
LINE
5
128
100
AcDbEntity
8
0
100
AcDbLine
10
82.999999999999957
20
-74.999999999999986
30
0
11
79.248999999999953
21
-74.999999999999986
31
0
0
LINE
5
129
100
AcDbEntity
8
0
100
AcDbLine
10
79.248999999999953
20
-74.999999999999986
30
0
11
79.248999999999953
21
-69.999999999999986
31
0
0
LINE
5
130
100
AcDbEntity
8
0
100
AcDbLine
10
79.248999999999953
20
-69.999999999999986
30
0
11
82.999999999999957
21
-69.999999999999986
31
0
0
LINE
5
131
100
AcDbEntity
8
0
100
AcDbLine
10
82.999999999999957
20
-69.999999999999986
30
0
11
82.999999999999957
21
-64.999999999999986
31
0
0
LINE
5
132
100
AcDbEntity
8
0
100
AcDbLine
10
82.999999999999957
20
-64.999999999999986
30
0
11
79.248999999999953
21
-64.999999999999986
31
0
0
LINE
5
133
100
AcDbEntity
8
0
100
AcDbLine
10
79.248999999999953
20
-64.999999999999986
30
0
11
79.248999999999953
21
-59.999999999999993
31
0
0
LINE
5
134
100
AcDbEntity
8
0
100
AcDbLine
10
79.248999999999953
20
-59.999999999999993
30
0
11
82.999999999999957
21
-59.999999999999993
31
0
0
LINE
5
135
100
AcDbEntity
8
0
100
AcDbLine
10
82.999999999999957
20
-59.999999999999993
30
0
11
82.999999999999957
21
-54.999999999999993
31
0
0
LINE
5
136
100
AcDbEntity
8
0
100
AcDbLine
10
82.999999999999957
20
-54.999999999999993
30
0
11
79.248999999999953
21
-54.999999999999993
31
0
0
LINE
5
137
100
AcDbEntity
8
0
100
AcDbLine
10
79.248999999999953
20
-54.999999999999993
30
0
11
79.248999999999953
21
-49.999999999999993
31
0
0
LINE
5
138
100
AcDbEntity
8
0
100
AcDbLine
10
79.248999999999953
20
-49.999999999999993
30
0
11
82.999999999999957
21
-49.999999999999993
31
0
0
LINE
5
139
100
AcDbEntity
8
0
100
AcDbLine
10
82.999999999999957
20
-49.999999999999993
30
0
11
82.999999999999957
21
-44.999999999999993
31
0
0
LINE
5
140
100
AcDbEntity
8
0
100
AcDbLine
10
82.999999999999957
20
-44.999999999999993
30
0
11
79.248999999999953
21
-44.999999999999993
31
0
0
LINE
5
141
100
AcDbEntity
8
0
100
AcDbLine
10
79.248999999999953
20
-44.999999999999993
30
0
11
79.248999999999967
21
-39.999999999999993
31
0
0
LINE
5
142
100
AcDbEntity
8
0
100
AcDbLine
10
79.248999999999967
20
-39.999999999999993
30
0
11
82.999999999999972
21
-39.999999999999993
31
0
0
LINE
5
143
100
AcDbEntity
8
0
100
AcDbLine
10
82.999999999999972
20
-39.999999999999993
30
0
11
82.999999999999972
21
-34.999999999999993
31
0
0
LINE
5
144
100
AcDbEntity
8
0
100
AcDbLine
10
82.999999999999972
20
-34.999999999999993
30
0
11
79.248999999999967
21
-34.999999999999993
31
0
0
LINE
5
145
100
AcDbEntity
8
0
100
AcDbLine
10
79.248999999999967
20
-34.999999999999993
30
0
11
79.248999999999967
21
-30
31
0
0
LINE
5
146
100
AcDbEntity
8
0
100
AcDbLine
10
79.248999999999967
20
-30
30
0
11
82.999999999999972
21
-30
31
0
0
LINE
5
147
100
AcDbEntity
8
0
100
AcDbLine
10
82.999999999999972
20
-30
30
0
11
82.999999999999972
21
-25
31
0
0
LINE
5
148
100
AcDbEntity
8
0
100
AcDbLine
10
82.999999999999972
20
-25
30
0
11
79.248999999999967
21
-25
31
0
0
LINE
5
149
100
AcDbEntity
8
0
100
AcDbLine
10
79.248999999999967
20
-25
30
0
11
79.248999999999967
21
-20
31
0
0
LINE
5
150
100
AcDbEntity
8
0
100
AcDbLine
10
79.248999999999967
20
-20
30
0
11
82.999999999999972
21
-20
31
0
0
LINE
5
151
100
AcDbEntity
8
0
100
AcDbLine
10
82.999999999999972
20
-20
30
0
11
82.999999999999972
21
-15
31
0
0
LINE
5
152
100
AcDbEntity
8
0
100
AcDbLine
10
82.999999999999972
20
-15
30
0
11
79.248999999999967
21
-15
31
0
0
LINE
5
153
100
AcDbEntity
8
0
100
AcDbLine
10
79.248999999999967
20
-15
30
0
11
79.248999999999967
21
-9.9999999999999982
31
0
0
LINE
5
154
100
AcDbEntity
8
0
100
AcDbLine
10
79.248999999999967
20
-9.9999999999999982
30
0
11
82.999999999999972
21
-10
31
0
0
LINE
5
155
100
AcDbEntity
8
0
100
AcDbLine
10
82.999999999999972
20
-10
30
0
11
82.999999999999972
21
-5
31
0
0
LINE
5
156
100
AcDbEntity
8
0
100
AcDbLine
10
82.999999999999972
20
-5
30
0
11
79.248999999999967
21
-4.9999999999999991
31
0
0
LINE
5
157
100
AcDbEntity
8
0
100
AcDbLine
10
79.248999999999967
20
-4.9999999999999991
30
0
11
79.248999999999995
21
1.1102230246251565e-15
31
0
0
LINE
5
158
100
AcDbEntity
8
0
100
AcDbLine
10
79.248999999999995
20
1.1102230246251565e-15
30
0
11
82.999999999999986
21
0
31
0
0
LINE
5
159
100
AcDbEntity
8
0
100
AcDbLine
10
82.999999999999986
20
0
30
0
11
82.999999999999986
21
5
31
0
0
LINE
5
160
100
AcDbEntity
8
0
100
AcDbLine
10
82.999999999999986
20
5
30
0
11
79.248999999999995
21
5
31
0
0
LINE
5
161
100
AcDbEntity
8
0
100
AcDbLine
10
79.248999999999995
20
5
30
0
11
79.248999999999995
21
10
31
0
0
LINE
5
162
100
AcDbEntity
8
0
100
AcDbLine
10
79.248999999999995
20
10
30
0
11
82.999999999999986
21
10
31
0
0
LINE
5
163
100
AcDbEntity
8
0
100
AcDbLine
10
82.999999999999986
20
10
30
0
11
82.999999999999986
21
15
31
0
0
LINE
5
164
100
AcDbEntity
8
0
100
AcDbLine
10
82.999999999999986
20
15
30
0
11
79.248999999999995
21
15
31
0
0
LINE
5
165
100
AcDbEntity
8
0
100
AcDbLine
10
79.248999999999995
20
15
30
0
11
79.248999999999995
21
20
31
0
0
LINE
5
166
100
AcDbEntity
8
0
100
AcDbLine
10
79.248999999999995
20
20
30
0
11
82.999999999999986
21
20
31
0
0
LINE
5
167
100
AcDbEntity
8
0
100
AcDbLine
10
82.999999999999986
20
20
30
0
11
82.999999999999986
21
25
31
0
0
LINE
5
168
100
AcDbEntity
8
0
100
AcDbLine
10
82.999999999999986
20
25
30
0
11
79.248999999999995
21
25
31
0
0
LINE
5
169
100
AcDbEntity
8
0
100
AcDbLine
10
79.248999999999995
20
25
30
0
11
79.248999999999995
21
30
31
0
0
LINE
5
170
100
AcDbEntity
8
0
100
AcDbLine
10
79.248999999999995
20
30
30
0
11
82.999999999999986
21
30
31
0
0
LINE
5
171
100
AcDbEntity
8
0
100
AcDbLine
10
82.999999999999986
20
30
30
0
11
82.999999999999986
21
35
31
0
0
LINE
5
172
100
AcDbEntity
8
0
100
AcDbLine
10
82.999999999999986
20
35
30
0
11
79.248999999999995
21
35
31
0
0
LINE
5
173
100
AcDbEntity
8
0
100
AcDbLine
10
79.248999999999995
20
35
30
0
11
79.248999999999995
21
36.25
31
0
0
LINE
5
174
100
AcDbEntity
8
0
100
AcDbLine
10
79.248999999999995
20
36.25
30
0
11
79.249996185302706
21
36.25
31
0
0
LINE
5
175
100
AcDbEntity
8
0
100
AcDbLine
10
79.249996185302706
20
36.25
30
0
11
79.249996185302706
21
40
31
0
0
LINE
5
176
100
AcDbEntity
8
0
100
AcDbLine
10
79.249996185302706
20
40
30
0
11
-60.250000000000021
21
40
31
0
0
LINE
5
177
100
AcDbEntity
8
0
100
AcDbLine
10
-60.250000000000021
20
40
30
0
11
-60.250000000000021
21
36.260000000000012
31
0
0
LINE
5
178
100
AcDbEntity
8
0
100
AcDbLine
10
-60.250000000000021
20
36.260000000000012
30
0
11
-60.248999999999967
21
36.260000000000012
31
0
0
LINE
5
179
100
AcDbEntity
8
0
100
AcDbLine
10
-60.248999999999967
20
36.260000000000012
30
0
11
-60.248999999999967
21
35.010000000000012
31
0
0
LINE
5
180
100
AcDbEntity
8
0
100
AcDbLine
10
-60.248999999999967
20
35.010000000000012
30
0
11
-63.999999999999972
21
35.010000000000012
31
0
0
LINE
5
181
100
AcDbEntity
8
0
100
AcDbLine
10
-63.999999999999972
20
35.010000000000012
30
0
11
-63.999999999999972
21
30.010000000000012
31
0
0
LINE
5
182
100
AcDbEntity
8
0
100
AcDbLine
10
-63.999999999999972
20
30.010000000000012
30
0
11
-60.248999999999967
21
30.010000000000012
31
0
0
LINE
5
183
100
AcDbEntity
8
0
100
AcDbLine
10
-60.248999999999967
20
30.010000000000012
30
0
11
-60.248999999999967
21
25.010000000000012
31
0
0
LINE
5
184
100
AcDbEntity
8
0
100
AcDbLine
10
-60.248999999999967
20
25.010000000000012
30
0
11
-63.999999999999972
21
25.010000000000012
31
0
0
LINE
5
185
100
AcDbEntity
8
0
100
AcDbLine
10
-63.999999999999972
20
25.010000000000012
30
0
11
-63.999999999999972
21
20.010000000000012
31
0
0
LINE
5
186
100
AcDbEntity
8
0
100
AcDbLine
10
-63.999999999999972
20
20.010000000000012
30
0
11
-60.248999999999967
21
20.010000000000012
31
0
0
LINE
5
187
100
AcDbEntity
8
0
100
AcDbLine
10
-60.248999999999967
20
20.010000000000012
30
0
11
-60.248999999999967
21
15.010000000000012
31
0
0
LINE
5
188
100
AcDbEntity
8
0
100
AcDbLine
10
-60.248999999999967
20
15.010000000000012
30
0
11
-63.999999999999972
21
15.010000000000012
31
0
0
LINE
5
189
100
AcDbEntity
8
0
100
AcDbLine
10
-63.999999999999972
20
15.010000000000012
30
0
11
-63.999999999999972
21
10.010000000000012
31
0
0
LINE
5
190
100
AcDbEntity
8
0
100
AcDbLine
10
-63.999999999999972
20
10.010000000000012
30
0
11
-60.248999999999967
21
10.010000000000012
31
0
0
LINE
5
191
100
AcDbEntity
8
0
100
AcDbLine
10
-60.248999999999967
20
10.010000000000012
30
0
11
-60.248999999999967
21
5.0100000000000113
31
0
0
LINE
5
192
100
AcDbEntity
8
0
100
AcDbLine
10
-60.248999999999967
20
5.0100000000000113
30
0
11
-63.999999999999972
21
5.0100000000000122
31
0
0
LINE
5
193
100
AcDbEntity
8
0
100
AcDbLine
10
-63.999999999999972
20
5.0100000000000122
30
0
11
-63.999999999999972
21
0.010000000000012221
31
0
0
LINE
5
194
100
AcDbEntity
8
0
100
AcDbLine
10
-63.999999999999972
20
0.010000000000012221
30
0
11
-60.248999999999967
21
0.010000000000011111
31
0
0
LINE
5
195
100
AcDbEntity
8
0
100
AcDbLine
10
-60.248999999999967
20
0.010000000000011111
30
0
11
-60.248999999999988
21
-4.9899999999999887
31
0
0
LINE
5
196
100
AcDbEntity
8
0
100
AcDbLine
10
-60.248999999999988
20
-4.9899999999999887
30
0
11
-63.999999999999986
21
-4.9899999999999878
31
0
0
LINE
5
197
100
AcDbEntity
8
0
100
AcDbLine
10
-63.999999999999986
20
-4.9899999999999878
30
0
11
-63.999999999999986
21
-9.9899999999999878
31
0
0
LINE
5
198
100
AcDbEntity
8
0
100
AcDbLine
10
-63.999999999999986
20
-9.9899999999999878
30
0
11
-60.248999999999988
21
-9.9899999999999878
31
0
0
LINE
5
199
100
AcDbEntity
8
0
100
AcDbLine
10
-60.248999999999988
20
-9.9899999999999878
30
0
11
-60.248999999999988
21
-14.989999999999988
31
0
0
LINE
5
200
100
AcDbEntity
8
0
100
AcDbLine
10
-60.248999999999988
20
-14.989999999999988
30
0
11
-63.999999999999986
21
-14.989999999999988
31
0
0
LINE
5
201
100
AcDbEntity
8
0
100
AcDbLine
10
-63.999999999999986
20
-14.989999999999988
30
0
11
-63.999999999999986
21
-19.989999999999988
31
0
0
LINE
5
202
100
AcDbEntity
8
0
100
AcDbLine
10
-63.999999999999986
20
-19.989999999999988
30
0
11
-60.248999999999988
21
-19.989999999999988
31
0
0
LINE
5
203
100
AcDbEntity
8
0
100
AcDbLine
10
-60.248999999999988
20
-19.989999999999988
30
0
11
-60.248999999999988
21
-24.989999999999988
31
0
0
LINE
5
204
100
AcDbEntity
8
0
100
AcDbLine
10
-60.248999999999988
20
-24.989999999999988
30
0
11
-63.999999999999986
21
-24.989999999999988
31
0
0
LINE
5
205
100
AcDbEntity
8
0
100
AcDbLine
10
-63.999999999999986
20
-24.989999999999988
30
0
11
-63.999999999999986
21
-29.989999999999988
31
0
0
LINE
5
206
100
AcDbEntity
8
0
100
AcDbLine
10
-63.999999999999986
20
-29.989999999999988
30
0
11
-60.248999999999988
21
-29.989999999999988
31
0
0
LINE
5
207
100
AcDbEntity
8
0
100
AcDbLine
10
-60.248999999999988
20
-29.989999999999988
30
0
11
-60.248999999999988
21
-34.989999999999981
31
0
0
LINE
5
208
100
AcDbEntity
8
0
100
AcDbLine
10
-60.248999999999988
20
-34.989999999999981
30
0
11
-63.999999999999986
21
-34.989999999999981
31
0
0
LINE
5
209
100
AcDbEntity
8
0
100
AcDbLine
10
-63.999999999999986
20
-34.989999999999981
30
0
11
-63.999999999999986
21
-39.989999999999981
31
0
0
LINE
5
210
100
AcDbEntity
8
0
100
AcDbLine
10
-63.999999999999986
20
-39.989999999999981
30
0
11
-60.248999999999988
21
-39.989999999999981
31
0
0
LINE
5
211
100
AcDbEntity
8
0
100
AcDbLine
10
-60.248999999999988
20
-39.989999999999981
30
0
11
-60.249000000000009
21
-44.989999999999981
31
0
0
LINE
5
212
100
AcDbEntity
8
0
100
AcDbLine
10
-60.249000000000009
20
-44.989999999999981
30
0
11
-64
21
-44.989999999999981
31
0
0
LINE
5
213
100
AcDbEntity
8
0
100
AcDbLine
10
-64
20
-44.989999999999981
30
0
11
-64
21
-49.989999999999981
31
0
0
LINE
5
214
100
AcDbEntity
8
0
100
AcDbLine
10
-64
20
-49.989999999999981
30
0
11
-60.249000000000009
21
-49.989999999999981
31
0
0
LINE
5
215
100
AcDbEntity
8
0
100
AcDbLine
10
-60.249000000000009
20
-49.989999999999981
30
0
11
-60.249000000000009
21
-54.989999999999981
31
0
0
LINE
5
216
100
AcDbEntity
8
0
100
AcDbLine
10
-60.249000000000009
20
-54.989999999999981
30
0
11
-64
21
-54.989999999999981
31
0
0
LINE
5
217
100
AcDbEntity
8
0
100
AcDbLine
10
-64
20
-54.989999999999981
30
0
11
-64
21
-59.989999999999981
31
0
0
LINE
5
218
100
AcDbEntity
8
0
100
AcDbLine
10
-64
20
-59.989999999999981
30
0
11
-60.249000000000009
21
-59.989999999999981
31
0
0
LINE
5
219
100
AcDbEntity
8
0
100
AcDbLine
10
-60.249000000000009
20
-59.989999999999981
30
0
11
-60.249000000000009
21
-64.989999999999981
31
0
0
LINE
5
220
100
AcDbEntity
8
0
100
AcDbLine
10
-60.249000000000009
20
-64.989999999999981
30
0
11
-64
21
-64.989999999999981
31
0
0
LINE
5
221
100
AcDbEntity
8
0
100
AcDbLine
10
-64
20
-64.989999999999981
30
0
11
-64
21
-69.989999999999981
31
0
0
LINE
5
222
100
AcDbEntity
8
0
100
AcDbLine
10
-64
20
-69.989999999999981
30
0
11
-60.249000000000009
21
-69.989999999999981
31
0
0
LINE
5
223
100
AcDbEntity
8
0
100
AcDbLine
10
-60.249000000000009
20
-69.989999999999981
30
0
11
-60.249000000000009
21
-74.989999999999981
31
0
0
LINE
5
224
100
AcDbEntity
8
0
100
AcDbLine
10
-60.249000000000009
20
-74.989999999999981
30
0
11
-64
21
-74.989999999999981
31
0
0
LINE
5
225
100
AcDbEntity
8
0
100
AcDbLine
10
-64
20
-74.989999999999981
30
0
11
-64
21
-79.989999999999981
31
0
0
LINE
5
226
100
AcDbEntity
8
0
100
AcDbLine
10
-64
20
-79.989999999999981
30
0
11
-60.249000000000009
21
-79.989999999999981
31
0
0
LINE
5
227
100
AcDbEntity
8
0
100
AcDbLine
10
-60.249000000000009
20
-79.989999999999981
30
0
11
-60.249000000000009
21
-84.989999999999981
31
0
0
LINE
5
228
100
AcDbEntity
8
0
100
AcDbLine
10
-60.249000000000009
20
-84.989999999999981
30
0
11
-64
21
-84.989999999999981
31
0
0
LINE
5
229
100
AcDbEntity
8
0
100
AcDbLine
10
-64
20
-84.989999999999981
30
0
11
-64
21
-89.989999999999981
31
0
0
LINE
5
230
100
AcDbEntity
8
0
100
AcDbLine
10
-64
20
-89.989999999999981
30
0
11
-60.249000000000009
21
-89.989999999999981
31
0
0
LINE
5
231
100
AcDbEntity
8
0
100
AcDbLine
10
-60.249000000000009
20
-89.989999999999981
30
0
11
-60.249000000000009
21
-94.989999999999981
31
0
0
LINE
5
232
100
AcDbEntity
8
0
100
AcDbLine
10
-60.249000000000009
20
-94.989999999999981
30
0
11
-64
21
-94.989999999999981
31
0
0
LINE
5
233
100
AcDbEntity
8
0
100
AcDbLine
10
-64
20
-94.989999999999981
30
0
11
-64
21
-99.989999999999981
31
0
0
LINE
5
234
100
AcDbEntity
8
0
100
AcDbLine
10
-64
20
-99.989999999999981
30
0
11
-60.249000000000009
21
-99.989999999999981
31
0
0
LINE
5
235
100
AcDbEntity
8
0
100
AcDbLine
10
-60.249000000000009
20
-99.989999999999981
30
0
11
-60.249000000000009
21
-104.98999999999998
31
0
0
LINE
5
236
100
AcDbEntity
8
0
100
AcDbLine
10
-60.249000000000009
20
-104.98999999999998
30
0
11
-64
21
-104.98999999999998
31
0
0
LINE
5
237
100
AcDbEntity
8
0
100
AcDbLine
10
-64
20
-104.98999999999998
30
0
11
-64
21
-109.98999999999998
31
0
0
LINE
5
238
100
AcDbEntity
8
0
100
AcDbLine
10
-64
20
-109.98999999999998
30
0
11
-60.249000000000009
21
-109.98999999999998
31
0
0
LINE
5
239
100
AcDbEntity
8
0
100
AcDbLine
10
-60.249000000000009
20
-109.98999999999998
30
0
11
-60.249000000000009
21
-114.98999999999998
31
0
0
LINE
5
240
100
AcDbEntity
8
0
100
AcDbLine
10
-60.249000000000009
20
-114.98999999999998
30
0
11
-64
21
-114.98999999999998
31
0
0
LINE
5
241
100
AcDbEntity
8
0
100
AcDbLine
10
-64
20
-114.98999999999998
30
0
11
-64
21
-119.98999999999998
31
0
0
LINE
5
242
100
AcDbEntity
8
0
100
AcDbLine
10
-64
20
-119.98999999999998
30
0
11
-60.249000000000009
21
-119.98999999999998
31
0
0
LINE
5
243
100
AcDbEntity
8
0
100
AcDbLine
10
-60.249000000000009
20
-119.98999999999998
30
0
11
-60.249000000000009
21
-124.98999999999998
31
0
0
LINE
5
244
100
AcDbEntity
8
0
100
AcDbLine
10
-60.249000000000009
20
-124.98999999999998
30
0
11
-64
21
-124.98999999999998
31
0
0
LINE
5
245
100
AcDbEntity
8
0
100
AcDbLine
10
-64
20
-124.98999999999998
30
0
11
-64
21
-129.98999999999998
31
0
0
LINE
5
246
100
AcDbEntity
8
0
100
AcDbLine
10
-64
20
-129.98999999999998
30
0
11
-60.249000000000009
21
-129.98999999999998
31
0
0
LINE
5
247
100
AcDbEntity
8
0
100
AcDbLine
10
-60.249000000000009
20
-129.98999999999998
30
0
11
-60.249000000000009
21
-134.98999999999998
31
0
0
LINE
5
248
100
AcDbEntity
8
0
100
AcDbLine
10
-60.249000000000009
20
-134.98999999999998
30
0
11
-64
21
-134.98999999999998
31
0
0
LINE
5
249
100
AcDbEntity
8
0
100
AcDbLine
10
-64
20
-134.98999999999998
30
0
11
-64
21
-139.98999999999998
31
0
0
LINE
5
250
100
AcDbEntity
8
0
100
AcDbLine
10
-64
20
-139.98999999999998
30
0
11
-60.249000000000009
21
-139.98999999999998
31
0
0
LINE
5
251
100
AcDbEntity
8
0
100
AcDbLine
10
-60.249000000000009
20
-139.98999999999998
30
0
11
-60.249000000000009
21
-144.98999999999998
31
0
0
LINE
5
252
100
AcDbEntity
8
0
100
AcDbLine
10
-60.249000000000009
20
-144.98999999999998
30
0
11
-64
21
-144.98999999999998
31
0
0
LINE
5
253
100
AcDbEntity
8
0
100
AcDbLine
10
-64
20
-144.98999999999998
30
0
11
-64
21
-149.9900094451904
31
0
0
LINE
5
254
100
AcDbEntity
8
0
100
AcDbLine
10
-64
20
-149.9900094451904
30
0
11
-60.250000000000014
21
-149.9900094451904
31
0
0
LINE
5
255
100
AcDbEntity
8
0
100
AcDbLine
10
-60.250000000000014
20
-149.9900094451904
30
0
11
-55.25
21
-149.99000540161131
31
0
0
LINE
5
256
100
AcDbEntity
8
0
100
AcDbLine
10
-55.25
20
-149.99000540161131
30
0
11
-50.25
21
-149.98999999999998
31
0
0
LINE
5
257
100
AcDbEntity
8
0
100
AcDbLine
10
-50.25
20
-149.98999999999998
30
0
11
-45.25
21
-149.99000540161131
31
0
0
LINE
5
258
100
AcDbEntity
8
0
100
AcDbLine
10
-45.25
20
-149.99000540161131
30
0
11
-40.25
21
-149.98999999999998
31
0
0
LINE
5
259
100
AcDbEntity
8
0
100
AcDbLine
10
-40.25
20
-149.98999999999998
30
0
11
-35.25
21
-149.99000540161131
31
0
0
LINE
5
260
100
AcDbEntity
8
0
100
AcDbLine
10
-35.25
20
-149.99000540161131
30
0
11
-30.250000000000004
21
-149.98999999999998
31
0
0
LINE
5
261
100
AcDbEntity
8
0
100
AcDbLine
10
-30.250000000000004
20
-149.98999999999998
30
0
11
-25.250000000000004
21
-149.99000540161131
31
0
0
LINE
5
262
100
AcDbEntity
8
0
100
AcDbLine
10
-25.250000000000004
20
-149.99000540161131
30
0
11
-20.250000000000004
21
-149.98999999999998
31
0
0
LINE
5
263
100
AcDbEntity
8
0
100
AcDbLine
10
-20.250000000000004
20
-149.98999999999998
30
0
11
-15.250000000000004
21
-149.99000540161131
31
0
0
LINE
5
264
100
AcDbEntity
8
0
100
AcDbLine
10
-15.250000000000004
20
-149.99000540161131
30
0
11
-10.250000000000004
21
-149.98999999999998
31
0
0
LINE
5
265
100
AcDbEntity
8
0
100
AcDbLine
10
-10.250000000000004
20
-149.98999999999998
30
0
11
-5.2500000000000036
21
-149.99000540161131
31
0
0
LINE
5
266
100
AcDbEntity
8
0
100
AcDbLine
10
-5.2500000000000036
20
-149.99000540161131
30
0
11
-0.25000000000000355
21
-149.98999999999998
31
0
0
LINE
5
267
100
AcDbEntity
8
0
100
AcDbLine
10
-0.25000000000000355
20
-149.98999999999998
30
0
11
4.7499999999999964
21
-149.99000540161131
31
0
0
LINE
5
268
100
AcDbEntity
8
0
100
AcDbLine
10
4.7499999999999964
20
-149.99000540161131
30
0
11
9.7499999999999964
21
-149.98999999999998
31
0
0
LINE
5
269
100
AcDbEntity
8
0
100
AcDbLine
10
9.7499999999999964
20
-149.98999999999998
30
0
11
14.749999999999996
21
-149.99000540161131
31
0
0
LINE
5
270
100
AcDbEntity
8
0
100
AcDbLine
10
14.749999999999996
20
-149.99000540161131
30
0
11
19.749999999999996
21
-149.98999999999998
31
0
0
LINE
5
271
100
AcDbEntity
8
0
100
AcDbLine
10
19.749999999999996
20
-149.98999999999998
30
0
11
24.749999999999996
21
-149.99000540161131
31
0
0
LINE
5
272
100
AcDbEntity
8
0
100
AcDbLine
10
24.749999999999996
20
-149.99000540161131
30
0
11
29.749999999999996
21
-149.98999999999998
31
0
0
LINE
5
273
100
AcDbEntity
8
0
100
AcDbLine
10
29.749999999999996
20
-149.98999999999998
30
0
11
34.75
21
-149.99000540161131
31
0
0
LINE
5
274
100
AcDbEntity
8
0
100
AcDbLine
10
34.75
20
-149.99000540161131
30
0
11
39.75
21
-149.98999999999998
31
0
0
LINE
5
275
100
AcDbEntity
8
0
100
AcDbLine
10
39.75
20
-149.98999999999998
30
0
11
44.75
21
-149.99000540161131
31
0
0
LINE
5
276
100
AcDbEntity
8
0
100
AcDbLine
10
44.75
20
-149.99000540161131
30
0
11
49.75
21
-149.98999999999998
31
0
0
LINE
5
277
100
AcDbEntity
8
0
100
AcDbLine
10
49.75
20
-149.98999999999998
30
0
11
54.75
21
-149.99000540161131
31
0
0
LINE
5
278
100
AcDbEntity
8
0
100
AcDbLine
10
54.75
20
-149.99000540161131
30
0
11
59.75
21
-149.98999999999998
31
0
0
LINE
5
279
100
AcDbEntity
8
0
100
AcDbLine
10
59.75
20
-149.98999999999998
30
0
11
64.75
21
-149.99000540161131
31
0
0
LINE
5
280
100
AcDbEntity
8
0
100
AcDbLine
10
64.75
20
-149.99000540161131
30
0
11
69.75
21
-149.98999999999998
31
0
0
LINE
5
281
100
AcDbEntity
8
0
100
AcDbLine
10
69.75
20
-149.98998632812498
30
0
11
74.75
21
-149.98998632812498
31
0
0
LINE
5
282
100
AcDbEntity
8
0
100
AcDbLine
10
74.75
20
-149.98999999999998
30
0
11
79.24999618530272
21
-149.98999999999998
31
0
0
LINE
5
283
100
AcDbEntity
8
0
100
AcDbLine
10
79.24999618530272
20
-149.98999999999998
30
0
11
82.999999999999957
21
-149.98999999999998
31
0
0
LINE
5
284
100
AcDbEntity
8
0
100
AcDbLine
10
82.999999999999957
20
-149.98999999999998
30
0
11
82.999999999999957
21
-145
31
0
0
LINE
5
285
100
AcDbEntity
8
0
100
AcDbLine
10
82.999999999999957
20
-145
30
0
11
79.249999999999957
21
-145
31
0
0
ENDSEC
0
SECTION
2
OBJECTS
0
DICTIONARY
5
C
100
AcDbDictionary
3
ACAD_GROUP
350
D
3
ACAD_MLINESTYLE
350
17
0
DICTIONARY
5
D
100
AcDbDictionary
0
DICTIONARY
5
1A
330
C
100
AcDbDictionary
0
DICTIONARY
5
17
100
AcDbDictionary
0
ENDSEC
0
EOF
